#N canvas 5 61 712 673 10;
#X msg 220 357 0;
#X msg 250 357 0.25;
#X msg 310 357 0.5;
#X msg 400 357 1;
#X msg 370 357 0.75;
#X msg 430 357 1.5;
#X msg 460 357 2;
#X msg 490 357 3;
#X msg 550 357 6;
#X msg 520 357 4;
#X msg 580 357 8;
#X msg 280 357 0.33;
#X msg 340 357 0.67;
#X obj 220 420 f;
#X obj 220 177 until;
#X obj 220 256 list store;
#X obj 220 154 t b b l, f 10;
#X obj 220 210 f;
#X obj 250 210 + 1;
#X msg 220 233 get \$1 1;
#X msg 257 177 0;
#X obj 151 103 t b l b;
#X obj 220 465 *;
#X obj 235 443 r ms;
#X obj 151 80 inlet divisions_temps(encodes);
#X obj 151 621 outlet divisions_temps(ms);
#X obj 220 284 sel 0 1 2 3 4 5 6 7 8 9 10 11 12;
#X obj 151 586 list, f 7;
#X obj 220 492 list prepend;
#X obj 190 555 list;
#X obj 190 522 t b b;
#X connect 0 0 13 0;
#X connect 1 0 13 0;
#X connect 2 0 13 0;
#X connect 3 0 13 0;
#X connect 4 0 13 0;
#X connect 5 0 13 0;
#X connect 6 0 13 0;
#X connect 7 0 13 0;
#X connect 8 0 13 0;
#X connect 9 0 13 0;
#X connect 10 0 13 0;
#X connect 11 0 13 0;
#X connect 12 0 13 0;
#X connect 13 0 22 0;
#X connect 14 0 17 0;
#X connect 15 0 26 0;
#X connect 15 1 14 1;
#X connect 16 0 14 0;
#X connect 16 1 20 0;
#X connect 16 2 15 1;
#X connect 17 0 18 0;
#X connect 17 0 19 0;
#X connect 18 0 17 1;
#X connect 19 0 15 0;
#X connect 20 0 17 1;
#X connect 21 0 27 0;
#X connect 21 1 16 0;
#X connect 21 2 30 0;
#X connect 22 0 28 0;
#X connect 23 0 22 1;
#X connect 24 0 21 0;
#X connect 26 0 0 0;
#X connect 26 1 1 0;
#X connect 26 2 11 0;
#X connect 26 3 2 0;
#X connect 26 4 12 0;
#X connect 26 5 4 0;
#X connect 26 6 3 0;
#X connect 26 7 5 0;
#X connect 26 8 6 0;
#X connect 26 9 7 0;
#X connect 26 10 9 0;
#X connect 26 11 8 0;
#X connect 26 12 10 0;
#X connect 27 0 25 0;
#X connect 28 0 29 0;
#X connect 29 0 28 1;
#X connect 29 0 27 1;
#X connect 30 0 29 0;
#X connect 30 1 29 1;
