#N canvas 760 119 467 556 10;
#X obj 140 137 until;
#X obj 140 216 list store;
#X obj 158 114 t b b l;
#X obj 140 170 f;
#X obj 170 170 + 1;
#X msg 140 193 get \$1 1;
#X msg 177 137 0;
#X msg 140 330 get \$1 1;
#X obj 140 353 list store, f 20;
#X obj 230 111 inlet gamme;
#X obj 158 81 inlet degre(s);
#X obj 140 446 outlet note;
#X obj 230 239 t l l;
#X obj 230 262 list length;
#X obj 140 297 mod;
#X obj 167 297 div;
#X obj 140 239 t f f;
#X obj 167 393 * 12;
#X obj 140 416 +, f 5;
#X connect 0 0 3 0;
#X connect 1 0 16 0;
#X connect 1 1 0 1;
#X connect 2 0 0 0;
#X connect 2 1 6 0;
#X connect 2 2 1 1;
#X connect 3 0 4 0;
#X connect 3 0 5 0;
#X connect 4 0 3 1;
#X connect 5 0 1 0;
#X connect 6 0 3 1;
#X connect 7 0 8 0;
#X connect 8 0 18 0;
#X connect 9 0 12 0;
#X connect 10 0 2 0;
#X connect 12 0 13 0;
#X connect 12 1 8 1;
#X connect 13 0 15 1;
#X connect 13 0 14 1;
#X connect 14 0 7 0;
#X connect 15 0 17 0;
#X connect 16 0 14 0;
#X connect 16 1 15 0;
#X connect 17 0 18 1;
#X connect 18 0 11 0;
