#N canvas 515 61 668 580 10;
#X obj 145 202 until;
#X obj 76 475 list, f 7;
#X obj 145 411 list prepend;
#X obj 115 444 list;
#X obj 76 508 outlet liste;
#X obj 76 56 inlet taille;
#X obj 76 155 t b f b;
#X obj 482 62 inlet variabilite;
#X text 377 60 max \, min;
#X obj 287 61 inlet plage;
#X obj 76 132 f 1;
#X obj 145 247 random 3;
#X obj 145 270 - 1;
#X obj 202 247 random;
#X obj 145 293 +;
#X obj 145 316 *;
#X obj 235 225 t f f;
#X obj 262 248 != 0;
#X obj 145 225 t b b, f 10;
#X obj 145 369 expr if($f1>$f2 \, $f2-1 \, if($f1<$f3 \, $f3+1 \, $f1))
;
#X obj 287 134 unpack;
#X obj 145 339 +;
#X obj 175 339 f;
#X obj 287 84 route list float;
#X msg 333 106 \$1 0;
#N canvas 5 61 450 300 old 0;
#X obj 138 151 random 7;
#X obj 183 82 unpack;
#X obj 183 128 -;
#X obj 138 174 +, f 18;
#X obj 216 105 t f f;
#X text 182 54 inlet plage;
#X text 112 125 until;
#X text 127 201 list prepend;
#X connect 0 0 3 0;
#X connect 1 0 2 0;
#X connect 1 1 4 0;
#X connect 2 0 0 1;
#X connect 4 0 2 1;
#X connect 4 1 3 1;
#X restore 475 450 pd old;
#X connect 0 0 18 0;
#X connect 1 0 4 0;
#X connect 2 0 3 0;
#X connect 3 0 2 1;
#X connect 3 0 1 1;
#X connect 5 0 10 0;
#X connect 6 0 1 0;
#X connect 6 1 0 0;
#X connect 6 2 3 0;
#X connect 7 0 16 0;
#X connect 9 0 23 0;
#X connect 10 0 6 0;
#X connect 11 0 12 0;
#X connect 12 0 14 0;
#X connect 13 0 14 1;
#X connect 14 0 15 0;
#X connect 15 0 21 0;
#X connect 16 0 13 1;
#X connect 16 1 17 0;
#X connect 17 0 15 1;
#X connect 18 0 11 0;
#X connect 18 1 13 0;
#X connect 19 0 22 0;
#X connect 19 0 2 0;
#X connect 20 0 19 1;
#X connect 20 1 19 2;
#X connect 21 0 19 0;
#X connect 22 0 21 1;
#X connect 23 0 20 0;
#X connect 23 1 24 0;
#X connect 24 0 20 0;
