#N canvas 494 165 1014 676 10;
#X obj 145 202 until;
#X obj 76 586 list, f 7;
#X obj 145 492 list prepend;
#X obj 115 555 list;
#X obj 76 619 outlet liste;
#X obj 76 56 inlet taille;
#X obj 509 62 inlet variabilite;
#X text 404 60 max \, min;
#X obj 314 61 inlet plage;
#X obj 76 132 f 1;
#X obj 314 134 unpack;
#X obj 314 84 route list float;
#X msg 360 106 \$1 0;
#X obj 145 225 t b b;
#X obj 172 317 random 3;
#X obj 172 340 - 1;
#X obj 229 317 random;
#X obj 172 363 +;
#X obj 172 386 *;
#X obj 262 294 t f f;
#X obj 289 318 != 0;
#X obj 172 294 t b b, f 10;
#X obj 172 439 expr if($f1>$f2 \, $f2-1 \, if($f1<$f3 \, $f3+1 \, $f1))
;
#X obj 172 409 +;
#X obj 202 409 f;
#X obj 145 469 f;
#X obj 509 135 unpack;
#X msg 202 193 0;
#X obj 76 155 t b f b b, f 10;
#X obj 509 84 route list float;
#X obj 172 271 moses, f 10;
#X obj 172 248 random 100;
#X msg 555 106 \$1 100;
#X text 631 63 plage de variabilité entre chaque élément \, pourcentage
de chance d'avoir une nouvelle valeur;
#X obj 115 522 t b b;
#X connect 0 0 13 0;
#X connect 1 0 4 0;
#X connect 2 0 3 0;
#X connect 3 0 2 1;
#X connect 3 0 1 1;
#X connect 5 0 9 0;
#X connect 6 0 29 0;
#X connect 8 0 11 0;
#X connect 9 0 28 0;
#X connect 10 0 22 1;
#X connect 10 1 22 2;
#X connect 11 0 10 0;
#X connect 11 1 12 0;
#X connect 12 0 10 0;
#X connect 13 0 25 0;
#X connect 13 1 31 0;
#X connect 14 0 15 0;
#X connect 15 0 17 0;
#X connect 16 0 17 1;
#X connect 17 0 18 0;
#X connect 18 0 23 0;
#X connect 19 0 16 1;
#X connect 19 1 20 0;
#X connect 20 0 18 1;
#X connect 21 0 14 0;
#X connect 21 1 16 0;
#X connect 22 0 24 0;
#X connect 22 0 25 1;
#X connect 23 0 22 0;
#X connect 24 0 23 1;
#X connect 25 0 2 0;
#X connect 26 0 19 0;
#X connect 26 1 30 1;
#X connect 27 0 24 0;
#X connect 28 0 1 0;
#X connect 28 1 0 0;
#X connect 28 2 34 0;
#X connect 28 3 27 0;
#X connect 29 0 26 0;
#X connect 29 1 32 0;
#X connect 30 0 21 0;
#X connect 31 0 30 0;
#X connect 32 0 26 0;
#X connect 34 0 3 0;
#X connect 34 1 3 1;
