#N canvas 70 273 700 487 10;
#X obj 142 283 list store;
#X obj 142 151 t b b l, f 10;
#X obj 142 197 f;
#X obj 172 197 + 1;
#X msg 142 220 get \$1 1;
#X msg 170 174 0;
#X obj 142 56 inlet bang;
#X obj 232 283 list store;
#X obj 142 336 pipe, f 5;
#X obj 142 359 t f b;
#X obj 142 109 list;
#X obj 223 66 inlet degres;
#X obj 142 404 outlet;
#X obj 479 176 inlet durees;
#X obj 422 283 list store;
#X obj 289 96 inlet ecarts;
#X obj 422 406 outlet;
#X obj 322 283 list store;
#X obj 322 406 outlet;
#X obj 379 126 inlet velocites;
#X obj 142 243 t a a a a;
#X obj 232 335 *;
#X obj 247 312 r ms;
#X obj 545 399 outlet;
#X connect 0 0 8 0;
#X connect 1 0 2 0;
#X connect 1 1 5 0;
#X connect 1 2 0 1;
#X connect 2 0 3 0;
#X connect 2 0 4 0;
#X connect 3 0 2 1;
#X connect 4 0 20 0;
#X connect 5 0 2 1;
#X connect 6 0 10 0;
#X connect 7 0 21 0;
#X connect 8 0 9 0;
#X connect 9 0 12 0;
#X connect 9 1 2 0;
#X connect 10 0 1 0;
#X connect 11 0 10 1;
#X connect 13 0 14 1;
#X connect 14 0 16 0;
#X connect 14 1 23 0;
#X connect 15 0 7 1;
#X connect 17 0 18 0;
#X connect 19 0 17 1;
#X connect 20 0 0 0;
#X connect 20 1 7 0;
#X connect 20 2 17 0;
#X connect 20 3 14 0;
#X connect 21 0 8 1;
#X connect 22 0 21 1;
