#N canvas 630 466 450 300 10;
#X obj 102 46 inlet note;
#X obj 102 89 t f f, f 10;
#X obj 102 145 pack f 0;
#X obj 159 145 pack f f;
#X obj 204 46 inlet velocite;
#X obj 314 46 inlet duree;
#X obj 102 188 outlet;
#X obj 102 122 pipe 100;
#X connect 0 0 1 0;
#X connect 1 0 7 0;
#X connect 1 1 3 0;
#X connect 2 0 6 0;
#X connect 3 0 6 0;
#X connect 4 0 3 1;
#X connect 5 0 7 1;
#X connect 7 0 2 0;
