#N canvas 5 61 1025 803 10;
#N canvas 423 614 444 458 bpm 0;
#X obj 89 204 metro;
#X obj 116 172 expr 60000/$f1;
#X obj 154 264 f;
#X obj 89 227 t b b;
#X obj 116 149 r tempo;
#X obj 89 287 s metro;
#X obj 154 287 s ms;
#X obj 89 100 r power;
#X connect 0 0 3 0;
#X connect 1 0 0 1;
#X connect 1 0 2 0;
#X connect 2 0 6 0;
#X connect 3 0 5 0;
#X connect 3 1 2 0;
#X connect 4 0 1 0;
#X connect 7 0 0 0;
#X restore 278 57 pd bpm;
#X obj 35 93 bng 30 250 50 0 out-metro metro empty 17 7 0 10 -1 -258113
-1;
#X obj 35 55 tgl 30 0 power in-power empty 17 7 0 10 -1 -4034 -1 0
1;
#N canvas 1 96 472 704 select_gamme 0;
#X obj 196 150 inlet;
#X obj 142 193 spigot;
#X obj 142 267 random 4;
#X obj 142 216 random 8;
#X obj 142 239 sel 1;
#X obj 142 149 r metro;
#X obj 142 306 s in-gamme-select;
#X connect 0 0 1 1;
#X connect 1 0 3 0;
#X connect 2 0 6 0;
#X connect 3 0 4 0;
#X connect 4 0 2 0;
#X connect 5 0 1 0;
#X restore 695 48 pd select_gamme;
#X obj 695 24 tgl 15 0 empty empty empty 17 7 0 10 -262144 -1 -1 0
1;
#X obj 139 64 nbx 7 15 1 1e+37 1 0 tempo in-tempo bpm 47 8 0 10 -262144
-1 -1 120 256;
#X obj 138 112 nbx 5 15 -1e+37 1e+37 0 0 tonalite in-tonalite empty
0 -8 0 10 -262144 -1 -1 40 256;
#X obj 474 37 loadbang;
#X text 135 92 tonalite;
#X text 137 44 tempo;
#X obj 448 85 bng 15 250 50 0 empty empty empty 17 7 0 10 -262144 -1
-1;
#X text 732 90 diat;
#X text 732 119 harm;
#X text 731 152 dharm;
#X text 736 185 pent;
#X obj 693 85 vradio 30 1 0 4 gamme-select in-gamme-select empty 0
-8 0 10 -162280 -262144 -1 0;
#N canvas 0 96 474 484 velo 0;
#X obj 220 169 random 2;
#X obj 136 292 +;
#X obj 201 294 -;
#X obj 136 170 random 20;
#X obj 220 197 pack f 40;
#X obj 220 220 route 0 1;
#X obj 136 116 t b b;
#X obj 137 86 r metro;
#X obj 136 357 s velocite;
#X connect 0 0 4 0;
#X connect 1 0 8 0;
#X connect 2 0 8 0;
#X connect 3 0 2 1;
#X connect 3 0 1 0;
#X connect 4 0 5 0;
#X connect 5 0 1 1;
#X connect 5 1 2 0;
#X connect 6 0 3 0;
#X connect 6 1 0 0;
#X connect 7 0 6 0;
#X restore 275 85 pd velo;
#X obj 524 413 s in-tempo;
#X obj 534 393 s in-tonalite;
#X msg 793 302 0 2 4 5 7 9 11;
#X msg 793 326 0 1 4 5 7 8 10;
#X msg 792 352 0 1 4 5 7 8 11;
#X obj 696 270 sel 0 1 2 3;
#X msg 793 376 0 2 4 7 9;
#X msg 793 406 0 1 4 6 8 10 11;
#X msg 793 436 0 1 3 4 6 7 9 10;
#X obj 696 241 r gamme-select;
#X obj 544 373 s in-gamme-select;
#X obj 524 317 r metro;
#X obj 524 340 t b;
#X obj 696 479 t a a;
#X obj 696 552 s gamme;
#X obj 723 502 list length;
#X obj 723 525 s gamme-length;
#X obj 124 295 tonal 0;
#X obj 138 162 nbx 5 15 -1e+37 1e+37 0 0 degre in-degre empty 0 -8
0 10 -262144 -1 -1 0 256;
#X text 135 142 degre;
#X msg 474 60 \; in-tempo 120 \; in-tonalite 40 \; in-gamme-select
0 \;;
#X connect 4 0 3 0;
#X connect 7 0 37 0;
#X connect 10 0 37 0;
#X connect 19 0 30 0;
#X connect 20 0 30 0;
#X connect 21 0 30 0;
#X connect 22 0 19 0;
#X connect 22 1 20 0;
#X connect 22 2 21 0;
#X connect 22 3 23 0;
#X connect 23 0 30 0;
#X connect 24 0 30 0;
#X connect 25 0 30 0;
#X connect 26 0 22 0;
#X connect 28 0 29 0;
#X connect 29 0 17 0;
#X connect 29 0 27 0;
#X connect 29 0 18 0;
#X connect 30 0 31 0;
#X connect 30 1 32 0;
#X connect 32 0 33 0;
