#N canvas 5 61 450 300 10;
#X obj 158 50 inlet note+velo;
#X obj 158 226 noteout;
#X obj 197 70 inlet channel;
#X obj 227 90 inlet port;
#X obj 227 113 * 16;
#X obj 227 136 + 1;
#X obj 197 203 +;
#X obj 227 159 t b f;
#X connect 0 0 1 0;
#X connect 2 0 6 0;
#X connect 3 0 4 0;
#X connect 4 0 5 0;
#X connect 5 0 7 0;
#X connect 6 0 1 2;
#X connect 7 0 6 0;
#X connect 7 1 6 1;
