#N canvas 203 61 1095 803 10;
#X obj 466 386 variateur;
#X obj 566 386 variateur;
#X obj 391 468 lecteur, f 51;
#X obj 766 386 variateur;
#X obj 391 659 gamme;
#X obj 418 636 r gamme;
#X obj 391 709 +;
#X obj 406 686 r tonalite;
#X obj 391 742 noteduree, f 34;
#X obj 666 386 variateur;
#N canvas 214 172 581 544 accords 0;
#X obj 208 188 until;
#X obj 208 267 list store;
#X obj 208 221 f;
#X obj 238 221 + 1;
#X msg 208 244 get \$1 1;
#X msg 245 188 0;
#X obj 208 165 t b b;
#X obj 177 311 +;
#X obj 265 51 inlet intervalles-accords;
#X obj 108 470 outlet accord;
#X obj 165 113 t b f;
#X obj 108 77 t b f b;
#X obj 108 54 inlet degre;
#X obj 108 438 list, f 7;
#X obj 177 344 list prepend;
#X obj 147 407 list;
#X obj 147 374 t b b;
#X connect 0 0 2 0;
#X connect 1 0 7 0;
#X connect 1 1 0 1;
#X connect 2 0 3 0;
#X connect 2 0 4 0;
#X connect 3 0 2 1;
#X connect 4 0 1 0;
#X connect 5 0 2 1;
#X connect 6 0 0 0;
#X connect 6 1 5 0;
#X connect 7 0 14 0;
#X connect 8 0 1 1;
#X connect 10 0 6 0;
#X connect 10 1 7 1;
#X connect 11 0 13 0;
#X connect 11 1 10 0;
#X connect 11 2 16 0;
#X connect 12 0 11 0;
#X connect 13 0 9 0;
#X connect 14 0 15 0;
#X connect 15 0 14 1;
#X connect 15 0 13 1;
#X connect 16 0 15 0;
#X connect 16 1 15 1;
#X restore 391 600 pd accords;
#X obj 391 765 outlet;
#X obj 694 490 s \$0-fin-sequence;
#X obj 44 620 del;
#X obj 566 411 convert_temps;
#X obj 766 411 convert_temps;
#X obj 44 382 r \$0-fin-sequence;
#X msg 513 570 0;
#X obj 44 414 spigot;
#X obj 77 212 tgl 15 0 empty empty empty 17 7 0 10 -262144 -1 -1 1
1;
#X obj 391 295 r \$0-bang;
#X obj 476 295 r \$0-degres;
#X obj 576 295 r \$0-ecarts;
#X obj 676 295 r \$0-velocites;
#X obj 776 295 r \$0-durees;
#X obj 466 233 generateur;
#X obj 666 233 generateur;
#X obj 766 233 generateur;
#X obj 44 756 s \$0-bang;
#X obj 54 736 s \$0-degres;
#X obj 64 716 s \$0-ecarts;
#X obj 74 696 s \$0-velocites;
#X obj 84 676 s \$0-durees;
#X obj 294 384 bng 15 250 50 0 empty empty empty 17 7 0 10 -262144
-1 -1;
#X obj 44 643 t b b b;
#X obj 476 352 list;
#X msg 584 133 7;
#X obj 466 58 bng 15 250 50 0 empty empty empty 17 7 0 10 -262144 -1
-1;
#X obj 897 302 loadbang;
#X obj 466 3 loadbang;
#N canvas 5 61 622 606 test_metro 0;
#X obj 148 399 unpack f f f f;
#X obj 121 502 s \$0-bang;
#X obj 148 482 s \$0-degres;
#X obj 175 462 s \$0-ecarts;
#X obj 202 442 s \$0-velocites;
#X obj 229 422 s \$0-durees;
#X obj 121 376 t b l;
#X obj 121 157 metro;
#X obj 148 116 f;
#X obj 163 93 r ms;
#X obj 121 41 tgl 15 0 empty empty empty 17 7 0 10 -262144 -1 -1 0
1;
#X obj 196 275 *;
#X obj 211 252 r ms;
#X obj 333 264 convert_temps;
#X obj 333 241 + 1;
#X obj 429 213 expr 13-$f1;
#X obj 333 195 sel 0;
#X obj 333 172 random 2;
#X obj 333 218 random 5;
#X obj 196 183 sel 0;
#X obj 196 229 expr pow(2 \, $f1-3);
#X obj 196 206 random 4;
#X obj 196 160 random 3;
#X msg 121 336 0 0 80 4;
#X obj 148 71 loadbang;
#X connect 0 0 2 0;
#X connect 0 1 3 0;
#X connect 0 2 4 0;
#X connect 0 3 5 0;
#X connect 6 0 1 0;
#X connect 6 1 0 0;
#X connect 7 0 23 0;
#X connect 7 0 22 0;
#X connect 8 0 7 1;
#X connect 9 0 8 1;
#X connect 10 0 7 0;
#X connect 11 0 7 1;
#X connect 12 0 11 1;
#X connect 14 0 15 0;
#X connect 14 0 13 0;
#X connect 15 0 17 1;
#X connect 16 0 18 0;
#X connect 17 0 16 0;
#X connect 18 0 14 0;
#X connect 19 0 21 0;
#X connect 20 0 11 0;
#X connect 21 0 20 0;
#X connect 22 0 19 0;
#X connect 23 0 6 0;
#X connect 24 0 8 0;
#X restore 924 488 pd test_metro;
#X msg 431 570 0 2 4;
#X msg 471 570 0 3 5;
#X obj 391 491 t a b;
#X obj 431 546 sel 0 1;
#X msg 466 135 8;
#X msg 823 134 1;
#X obj 466 78 t b b b, f 60;
#X text 482 113 taille;
#X text 683 107 plages valeurs;
#X text 839 110 variabilité;
#X text 890 348 variabilité;
#X text 312 57 générer nouvelle séquence;
#X text 194 383 lire la séquence;
#X text 107 210 boucle;
#X obj 752 701 bng 15 250 50 0 prout \$0-fin-sequence empty 17 7 0
10 -262144 -1 -1;
#X text 779 710 v;
#X obj 802 701 bng 15 250 50 0 prout2 \$0-fin-sequence empty 17 7 0
10 -262144 -1 -1;
#N canvas 5 61 450 307 liste_total 0;
#X obj 135 43 inlet liste;
#X obj 154 116 serialiseur;
#X msg 174 88 0;
#X obj 135 66 t b l b;
#X obj 135 169 f;
#X obj 154 139 +;
#X obj 184 139 f;
#X obj 135 192 outlet;
#X connect 0 0 3 0;
#X connect 1 0 5 0;
#X connect 2 0 6 0;
#X connect 3 0 4 0;
#X connect 3 1 1 0;
#X connect 3 2 2 0;
#X connect 4 0 7 0;
#X connect 5 0 6 0;
#X connect 5 0 4 1;
#X connect 6 0 5 1;
#X restore 59 472 pd liste_total;
#X obj 128 494 r ms;
#X obj 44 597 f;
#X obj 124 258 r power;
#X obj 134 281 sel 1;
#X msg 617 342 0 0 0;
#X msg 694 133 100 50;
#X obj 59 547 mod 1000;
#X obj 59 570 expr $f2-$f1;
#X floatatom 80 600 5 0 0 0 - - -;
#X floatatom 75 506 5 0 0 0 - - -;
#X obj 77 159 loadbang;
#X obj 77 322 &&;
#X obj 87 293 t b f;
#X obj 197 684 sel 0;
#X obj 197 707 s \$0-nouvelle-sequence;
#X obj 476 23 r \$0-nouvelle-sequence;
#X text 752 680 __;
#X text 802 680 __;
#X text 831 729 mouii...;
#X text 776 728 ==;
#X obj 430 522 random 10;
#X obj 566 233 generateur;
#X msg 897 325 1 40 1;
#X obj 652 549 print var;
#X obj 660 523 print gen;
#X obj 197 661 random 4;
#X msg 644 133 8;
#X msg 855 134 2 20;
#X obj 128 517 * 1;
#X text 146 543 chaque cycle est un multiple de 1 temps;
#X connect 0 0 2 1;
#X connect 0 0 35 1;
#X connect 1 0 14 0;
#X connect 2 0 43 0;
#X connect 2 1 8 1;
#X connect 2 2 8 2;
#X connect 2 3 12 0;
#X connect 3 0 15 0;
#X connect 4 0 6 0;
#X connect 5 0 4 1;
#X connect 6 0 8 0;
#X connect 7 0 6 1;
#X connect 8 0 11 0;
#X connect 9 0 2 3;
#X connect 10 0 4 0;
#X connect 13 0 34 0;
#X connect 14 0 2 2;
#X connect 14 0 58 0;
#X connect 15 0 2 4;
#X connect 16 0 18 0;
#X connect 17 0 10 1;
#X connect 18 0 60 0;
#X connect 19 0 70 0;
#X connect 20 0 2 0;
#X connect 21 0 35 0;
#X connect 22 0 1 0;
#X connect 23 0 9 0;
#X connect 24 0 3 0;
#X connect 25 0 0 0;
#X connect 26 0 9 0;
#X connect 27 0 3 0;
#X connect 33 0 2 0;
#X connect 34 0 28 0;
#X connect 34 1 31 0;
#X connect 34 1 32 0;
#X connect 34 1 30 0;
#X connect 34 1 29 0;
#X connect 34 2 84 0;
#X connect 35 0 0 0;
#X connect 36 0 25 1;
#X connect 37 0 47 0;
#X connect 38 0 81 0;
#X connect 39 0 37 0;
#X connect 41 0 10 1;
#X connect 42 0 10 1;
#X connect 43 0 10 0;
#X connect 43 1 79 0;
#X connect 44 0 41 0;
#X connect 44 1 42 0;
#X connect 44 2 17 0;
#X connect 45 0 80 0;
#X connect 45 0 26 0;
#X connect 45 0 27 0;
#X connect 45 0 25 0;
#X connect 46 0 27 2;
#X connect 46 0 26 2;
#X connect 46 0 25 2;
#X connect 47 0 45 0;
#X connect 47 1 36 0;
#X connect 47 1 85 0;
#X connect 47 1 64 0;
#X connect 47 2 46 0;
#X connect 47 2 86 0;
#X connect 58 0 65 0;
#X connect 58 0 68 0;
#X connect 59 0 87 0;
#X connect 60 0 13 0;
#X connect 61 0 62 0;
#X connect 61 0 71 0;
#X connect 62 0 33 0;
#X connect 63 0 1 1;
#X connect 64 0 26 1;
#X connect 65 0 66 0;
#X connect 66 0 60 1;
#X connect 66 0 67 0;
#X connect 69 0 19 0;
#X connect 70 0 18 1;
#X connect 71 0 70 0;
#X connect 71 1 70 1;
#X connect 72 0 73 0;
#X connect 74 0 37 0;
#X connect 79 0 44 0;
#X connect 80 0 1 0;
#X connect 81 0 0 1;
#X connect 81 0 3 1;
#X connect 81 0 9 1;
#X connect 81 0 1 1;
#X connect 84 0 72 0;
#X connect 85 0 80 1;
#X connect 85 0 27 1;
#X connect 86 0 80 2;
#X connect 87 0 65 1;
#X connect 87 0 66 1;
#X coords 0 803 1 802 150 280 0;
