#N canvas 203 61 1115 803 10;
#X obj 466 396 variateur;
#X obj 586 396 variateur;
#X obj 391 468 lecteur, f 51;
#X obj 826 396 variateur;
#X obj 391 659 gamme;
#X obj 418 636 r gamme;
#X obj 391 709 +;
#X obj 406 686 r tonalite;
#X obj 391 742 noteduree, f 34;
#X obj 706 396 variateur;
#N canvas 214 172 581 544 accords 0;
#X obj 208 188 until;
#X obj 208 267 list store;
#X obj 208 221 f;
#X obj 238 221 + 1;
#X msg 208 244 get \$1 1;
#X msg 245 188 0;
#X obj 208 165 t b b;
#X obj 177 311 +;
#X obj 265 51 inlet intervalles-accords;
#X obj 108 470 outlet accord;
#X obj 165 113 t b f;
#X obj 108 77 t b f b;
#X obj 108 54 inlet degre;
#X obj 108 438 list, f 7;
#X obj 177 344 list prepend;
#X obj 147 407 list;
#X obj 147 374 t b b;
#X connect 0 0 2 0;
#X connect 1 0 7 0;
#X connect 1 1 0 1;
#X connect 2 0 3 0;
#X connect 2 0 4 0;
#X connect 3 0 2 1;
#X connect 4 0 1 0;
#X connect 5 0 2 1;
#X connect 6 0 0 0;
#X connect 6 1 5 0;
#X connect 7 0 14 0;
#X connect 8 0 1 1;
#X connect 10 0 6 0;
#X connect 10 1 7 1;
#X connect 11 0 13 0;
#X connect 11 1 10 0;
#X connect 11 2 16 0;
#X connect 12 0 11 0;
#X connect 13 0 9 0;
#X connect 14 0 15 0;
#X connect 15 0 14 1;
#X connect 15 0 13 1;
#X connect 16 0 15 0;
#X connect 16 1 15 1;
#X restore 391 600 pd accords;
#X obj 391 765 outlet;
#X obj 694 491 s \$0-fin-sequence;
#X obj 44 620 del;
#X obj 586 419 convert_temps;
#X obj 826 419 convert_temps;
#X obj 44 382 r \$0-fin-sequence;
#X msg 513 570 0;
#X obj 44 414 spigot;
#X obj 77 212 tgl 15 0 empty empty empty 17 7 0 10 -262144 -1 -1 1
1;
#X obj 391 285 r \$0-bang;
#X obj 476 285 r \$0-degres;
#X obj 596 285 r \$0-ecarts;
#X obj 716 285 r \$0-velocites;
#X obj 836 285 r \$0-durees;
#X obj 466 223 generateur;
#X obj 706 223 generateur;
#X obj 826 223 generateur;
#X obj 44 756 s \$0-bang;
#X obj 54 736 s \$0-degres;
#X obj 64 716 s \$0-ecarts;
#X obj 74 696 s \$0-velocites;
#X obj 84 676 s \$0-durees;
#X obj 294 384 bng 15 250 50 0 empty empty empty 17 7 0 10 -262144
-1 -1;
#X obj 44 643 t b b b;
#X obj 466 58 bng 15 250 50 0 empty empty empty 17 7 0 10 -262144 -1
-1;
#X obj 972 324 loadbang;
#X obj 466 3 loadbang;
#X msg 431 570 0 2 4;
#X msg 471 570 0 3 5;
#X obj 391 491 t a b;
#X obj 431 546 sel 0 1;
#X msg 466 135 8;
#X obj 466 78 t b b b, f 70;
#X text 482 113 taille;
#X text 637 112 plages valeurs;
#X text 859 110 variabilité;
#X text 312 57 générer nouvelle séquence;
#X text 194 383 lire la séquence;
#X text 107 210 boucle;
#X obj 752 701 bng 15 250 50 0 prout \$0-fin-sequence empty 17 7 0
10 -262144 -1 -1;
#X text 779 710 v;
#X obj 802 701 bng 15 250 50 0 prout2 \$0-fin-sequence empty 17 7 0
10 -262144 -1 -1;
#N canvas 5 61 450 307 liste_total 0;
#X obj 135 43 inlet liste;
#X obj 154 116 serialiseur;
#X msg 174 88 0;
#X obj 135 66 t b l b;
#X obj 135 169 f;
#X obj 154 139 +;
#X obj 184 139 f;
#X obj 135 192 outlet;
#X connect 0 0 3 0;
#X connect 1 0 5 0;
#X connect 2 0 6 0;
#X connect 3 0 4 0;
#X connect 3 1 1 0;
#X connect 3 2 2 0;
#X connect 4 0 7 0;
#X connect 5 0 6 0;
#X connect 5 0 4 1;
#X connect 6 0 5 1;
#X restore 59 472 pd liste_total;
#X obj 128 494 r ms;
#X obj 44 597 f;
#X obj 124 258 r power;
#X obj 134 281 sel 1;
#X msg 734 133 100 50;
#X obj 59 547 mod 1000;
#X obj 59 570 expr $f2-$f1;
#X floatatom 80 600 5 0 0 0 - - -;
#X floatatom 75 506 5 0 0 0 - - -;
#X obj 77 159 loadbang;
#X obj 77 322 &&;
#X obj 87 293 t b f;
#X obj 197 684 sel 0;
#X obj 197 707 s \$0-nouvelle-sequence;
#X obj 476 23 r \$0-nouvelle-sequence;
#X text 752 680 __;
#X text 802 680 __;
#X text 831 729 mouii...;
#X text 776 728 ==;
#X obj 430 522 random 10;
#X obj 586 223 generateur;
#X msg 915 134 2 20;
#X obj 128 517 * 1;
#X text 146 543 chaque cycle est un multiple de 1 temps;
#X msg 851 342 min 1;
#X text 897 345 limite;
#X msg 517 342 8 40 1;
#X msg 757 342 4 60 5;
#X text 619 319 variabilités;
#X obj 586 200 - 1;
#X obj 586 246 list prepend 0;
#X obj 488 307 r \$0-mutation;
#X obj 466 372 mutation;
#X obj 131 61 tgl 15 0 \$0-mutation \$0-in-mutation empty 17 7 0 10
-262144 -1 -1 1 1;
#X text 79 55 mutation;
#X text 91 65 tonale;
#N canvas 358 87 845 649 statistiques 1;
#X obj 57 165 inlet;
#X text 311 85 réinitialiser;
#N canvas 0 50 450 250 (subpatch) 0;
#X array \$0-statisticus 64 float 3;
#A 0 0 0 0 0 0 1 0 0 1 0 1 2 2 2 0 5 8 8 9 10 13 10 12 25 40 56 48
55 71 104 73 88 106 159 157 172 131 94 142 91 100 67 82 44 54 24 45
17 14 18 15 8 12 8 10 3 7 2 6 1 6 6 6 21;
#X coords 0 1000 64 0 500 200 1 0 0;
#X restore 57 383 graph;
#X obj 57 234 tabread \$0-statisticus;
#X obj 57 257 + 1;
#X obj 57 280 tabwrite \$0-statisticus;
#X msg 338 139 64;
#X obj 57 188 + 32;
#X obj 57 211 t f f;
#X obj 338 162 t f b;
#X obj 338 208 until;
#X obj 368 231 + 1;
#X obj 338 231 i;
#X msg 365 185 0;
#X obj 338 254 t b f;
#X msg 338 277 0;
#X obj 338 300 tabwrite \$0-statisticus;
#X obj 338 110 bng 15 250 50 0 empty empty empty 17 7 0 10 -262144
-1 -1;
#X obj 604 240 r ms;
#X obj 604 263 t b;
#X floatatom 745 413 0 0 0 0 degré - -;
#X floatatom 604 383 0 0 0 1 occurences!!! - -;
#X obj 604 289 array max \$0-statisticus;
#X obj 745 312 - 32;
#X text 601 412 le gagnant est :;
#X text 647 442 bravo à lui.;
#X connect 0 0 7 0;
#X connect 3 0 4 0;
#X connect 4 0 5 0;
#X connect 6 0 9 0;
#X connect 7 0 8 0;
#X connect 8 0 3 0;
#X connect 8 1 5 1;
#X connect 9 0 10 0;
#X connect 9 1 13 0;
#X connect 10 0 12 0;
#X connect 11 0 12 1;
#X connect 12 0 11 0;
#X connect 12 0 14 0;
#X connect 13 0 12 1;
#X connect 14 0 15 0;
#X connect 14 1 16 1;
#X connect 15 0 16 0;
#X connect 17 0 6 0;
#X connect 18 0 19 0;
#X connect 19 0 22 0;
#X connect 22 0 21 0;
#X connect 22 1 23 0;
#X connect 23 0 20 0;
#X restore 660 547 pd statistiques;
#X msg 637 342 4 10 1;
#X obj 197 661 random 8;
#X msg 604 133 7 -7;
#X msg 883 134 3;
#X msg 674 133 4 1;
#X connect 0 0 2 1;
#X connect 0 0 86 2;
#X connect 1 0 14 0;
#X connect 2 0 40 0;
#X connect 2 0 90 0;
#X connect 2 1 8 1;
#X connect 2 2 8 2;
#X connect 2 3 12 0;
#X connect 3 0 15 0;
#X connect 4 0 6 0;
#X connect 5 0 4 1;
#X connect 6 0 8 0;
#X connect 7 0 6 1;
#X connect 8 0 11 0;
#X connect 9 0 2 3;
#X connect 10 0 4 0;
#X connect 13 0 34 0;
#X connect 14 0 2 2;
#X connect 14 0 53 0;
#X connect 15 0 2 4;
#X connect 16 0 18 0;
#X connect 17 0 10 1;
#X connect 18 0 55 0;
#X connect 19 0 64 0;
#X connect 20 0 2 0;
#X connect 21 0 86 0;
#X connect 22 0 1 0;
#X connect 23 0 9 0;
#X connect 24 0 3 0;
#X connect 25 0 86 0;
#X connect 26 0 9 0;
#X connect 27 0 3 0;
#X connect 33 0 2 0;
#X connect 34 0 28 0;
#X connect 34 1 31 0;
#X connect 34 1 32 0;
#X connect 34 1 30 0;
#X connect 34 1 29 0;
#X connect 34 2 92 0;
#X connect 35 0 43 0;
#X connect 36 0 81 0;
#X connect 36 0 78 0;
#X connect 36 0 91 0;
#X connect 36 0 80 0;
#X connect 37 0 35 0;
#X connect 38 0 10 1;
#X connect 39 0 10 1;
#X connect 40 0 10 0;
#X connect 40 1 73 0;
#X connect 41 0 38 0;
#X connect 41 1 39 0;
#X connect 41 2 17 0;
#X connect 42 0 25 0;
#X connect 42 0 83 0;
#X connect 42 0 27 0;
#X connect 42 0 26 0;
#X connect 43 0 42 0;
#X connect 43 1 93 0;
#X connect 43 1 95 0;
#X connect 43 1 58 0;
#X connect 43 2 94 0;
#X connect 43 2 75 0;
#X connect 53 0 59 0;
#X connect 53 0 62 0;
#X connect 54 0 76 0;
#X connect 55 0 13 0;
#X connect 56 0 57 0;
#X connect 56 0 65 0;
#X connect 57 0 33 0;
#X connect 58 0 26 1;
#X connect 59 0 60 0;
#X connect 60 0 55 1;
#X connect 60 0 61 0;
#X connect 63 0 19 0;
#X connect 64 0 18 1;
#X connect 65 0 64 0;
#X connect 65 1 64 1;
#X connect 66 0 67 0;
#X connect 68 0 35 0;
#X connect 73 0 41 0;
#X connect 74 0 84 0;
#X connect 75 0 74 2;
#X connect 76 0 59 1;
#X connect 76 0 60 1;
#X connect 78 0 1 1;
#X connect 78 0 3 1;
#X connect 80 0 0 2;
#X connect 81 0 9 2;
#X connect 83 0 74 0;
#X connect 84 0 1 0;
#X connect 85 0 86 1;
#X connect 86 0 0 0;
#X connect 91 0 3 2;
#X connect 91 0 1 2;
#X connect 92 0 66 0;
#X connect 93 0 25 1;
#X connect 94 0 25 2;
#X connect 94 0 27 2;
#X connect 94 0 26 2;
#X connect 95 0 27 1;
#X connect 95 0 74 1;
#X coords 0 803 1 802 150 280 0;
