#N canvas 84 61 984 803 10;
#X obj 336 376 variateur;
#X obj 436 376 variateur;
#X obj 261 458 lecteur, f 51;
#X obj 636 376 variateur;
#X obj 261 649 gamme;
#X obj 288 626 r gamme;
#X obj 261 699 +;
#X obj 276 676 r tonalite;
#X obj 261 732 noteduree, f 34;
#X obj 536 376 variateur;
#N canvas 214 172 581 544 accords 0;
#X obj 208 188 until;
#X obj 208 267 list store;
#X obj 208 221 f;
#X obj 238 221 + 1;
#X msg 208 244 get \$1 1;
#X msg 245 188 0;
#X obj 208 165 t b b;
#X obj 177 311 +;
#X obj 265 51 inlet intervalles-accords;
#X obj 108 440 outlet accord;
#X obj 165 113 t b f;
#X obj 108 77 t b f b;
#X obj 108 403 list, f 7;
#X obj 177 339 list prepend;
#X obj 147 372 list;
#X obj 108 54 inlet degre;
#X connect 0 0 2 0;
#X connect 1 0 7 0;
#X connect 1 1 0 1;
#X connect 2 0 3 0;
#X connect 2 0 4 0;
#X connect 3 0 2 1;
#X connect 4 0 1 0;
#X connect 5 0 2 1;
#X connect 6 0 0 0;
#X connect 6 1 5 0;
#X connect 7 0 13 0;
#X connect 8 0 1 1;
#X connect 10 0 6 0;
#X connect 10 1 7 1;
#X connect 11 0 12 0;
#X connect 11 1 10 0;
#X connect 11 2 14 0;
#X connect 12 0 9 0;
#X connect 13 0 14 0;
#X connect 14 0 13 1;
#X connect 14 0 12 1;
#X connect 15 0 11 0;
#X restore 261 590 pd accords;
#X obj 261 755 outlet;
#X obj 564 480 s \$0-fin-sequence;
#X obj 44 540 del;
#X msg 44 517 125;
#X obj 436 401 convert_temps;
#X obj 636 401 convert_temps;
#X obj 44 432 r \$0-fin-sequence;
#X msg 383 560 0;
#X obj 44 494 spigot;
#X obj 77 474 tgl 15 0 empty empty empty 17 7 0 10 -262144 -1 -1 1
1;
#X obj 261 285 r \$0-bang;
#X obj 346 285 r \$0-degres;
#X obj 446 285 r \$0-ecarts;
#X obj 546 285 r \$0-velocites;
#X obj 646 285 r \$0-durees;
#X obj 336 223 generateur;
#X obj 436 223 generateur;
#X obj 536 223 generateur;
#X obj 636 223 generateur;
#X obj 44 696 s \$0-bang;
#X obj 54 676 s \$0-degres;
#X obj 64 656 s \$0-ecarts;
#X obj 74 636 s \$0-velocites;
#X obj 84 616 s \$0-durees;
#X obj 216 360 bng 15 250 50 0 empty empty empty 17 7 0 10 -262144
-1 -1;
#X obj 44 593 t b b b;
#X obj 346 342 list;
#X msg 454 123 7;
#X obj 336 48 bng 15 250 50 0 empty empty empty 17 7 0 10 -262144 -1
-1;
#X obj 446 342 list;
#X msg 767 315 1 20 1;
#X obj 768 289 loadbang;
#X obj 337 23 loadbang;
#X msg 564 123 100 60;
#N canvas 5 61 622 606 test_metro 0;
#X obj 148 399 unpack f f f f;
#X obj 121 502 s \$0-bang;
#X obj 148 482 s \$0-degres;
#X obj 175 462 s \$0-ecarts;
#X obj 202 442 s \$0-velocites;
#X obj 229 422 s \$0-durees;
#X obj 121 376 t b l;
#X obj 121 157 metro;
#X obj 148 116 f;
#X obj 163 93 r ms;
#X obj 121 41 tgl 15 0 empty empty empty 17 7 0 10 -262144 -1 -1 0
1;
#X obj 196 275 *;
#X obj 211 252 r ms;
#X obj 333 264 convert_temps;
#X obj 333 241 + 1;
#X obj 429 213 expr 13-$f1;
#X obj 333 195 sel 0;
#X obj 333 172 random 2;
#X obj 333 218 random 5;
#X obj 196 183 sel 0;
#X obj 196 229 expr pow(2 \, $f1-3);
#X obj 196 206 random 4;
#X obj 196 160 random 3;
#X msg 121 336 0 0 80 4;
#X obj 148 71 loadbang;
#X connect 0 0 2 0;
#X connect 0 1 3 0;
#X connect 0 2 4 0;
#X connect 0 3 5 0;
#X connect 6 0 1 0;
#X connect 6 1 0 0;
#X connect 7 0 23 0;
#X connect 7 0 22 0;
#X connect 8 0 7 1;
#X connect 9 0 8 1;
#X connect 10 0 7 0;
#X connect 11 0 7 1;
#X connect 12 0 11 1;
#X connect 14 0 13 0;
#X connect 14 0 15 0;
#X connect 15 0 17 1;
#X connect 16 0 18 0;
#X connect 17 0 16 0;
#X connect 18 0 14 0;
#X connect 19 0 21 0;
#X connect 20 0 11 0;
#X connect 21 0 20 0;
#X connect 22 0 19 0;
#X connect 23 0 6 0;
#X connect 24 0 8 0;
#X restore 812 588 pd test_metro;
#X msg 301 560 0 2 4;
#X msg 341 560 0 3 5;
#X obj 261 481 t a b;
#X obj 301 536 sel 0 1;
#X obj 301 512 random 5;
#X msg 336 125 8;
#X msg 693 124 1;
#X msg 514 123 4;
#X obj 336 68 t b b b, f 60;
#X text 352 103 taille;
#X text 553 97 plages valeurs;
#X text 709 100 variabilité;
#X text 760 338 variabilité;
#X text 182 47 générer nouvelle séquence;
#X text 116 359 lire la séquence;
#X text 107 472 boucle;
#X obj 622 691 bng 15 250 50 0 prout \$0-fin-sequence empty 17 7 0
10 -262144 -1 -1;
#X text 623 670 /;
#X text 673 670 ;
#X text 649 700 v;
#X text 637 718 .-o-.;
#X text 701 719 c'est pas encore ça..;
#X obj 672 691 bng 15 250 50 0 prout \$0-fin-sequence empty 17 7 0
10 -262144 -1 -1;
#X connect 0 0 2 1;
#X connect 0 0 37 1;
#X connect 1 0 15 0;
#X connect 1 0 40 1;
#X connect 2 0 48 0;
#X connect 2 1 8 1;
#X connect 2 2 8 2;
#X connect 2 3 12 0;
#X connect 3 0 16 0;
#X connect 4 0 6 0;
#X connect 5 0 4 1;
#X connect 6 0 8 0;
#X connect 7 0 6 1;
#X connect 8 0 11 0;
#X connect 9 0 2 3;
#X connect 10 0 4 0;
#X connect 13 0 36 0;
#X connect 14 0 13 0;
#X connect 15 0 2 2;
#X connect 16 0 2 4;
#X connect 17 0 19 0;
#X connect 18 0 10 1;
#X connect 19 0 14 0;
#X connect 20 0 19 1;
#X connect 21 0 2 0;
#X connect 22 0 37 0;
#X connect 23 0 40 0;
#X connect 24 0 9 0;
#X connect 25 0 3 0;
#X connect 26 0 0 0;
#X connect 27 0 1 0;
#X connect 28 0 9 0;
#X connect 29 0 3 0;
#X connect 35 0 2 0;
#X connect 36 0 30 0;
#X connect 36 1 33 0;
#X connect 36 1 34 0;
#X connect 36 1 32 0;
#X connect 36 1 31 0;
#X connect 37 0 0 0;
#X connect 38 0 26 1;
#X connect 39 0 54 0;
#X connect 40 0 1 0;
#X connect 41 0 1 1;
#X connect 41 0 3 1;
#X connect 41 0 9 1;
#X connect 41 0 0 1;
#X connect 42 0 41 0;
#X connect 43 0 39 0;
#X connect 44 0 28 1;
#X connect 46 0 10 1;
#X connect 47 0 10 1;
#X connect 48 0 10 0;
#X connect 48 1 50 0;
#X connect 49 0 46 0;
#X connect 49 1 47 0;
#X connect 49 2 18 0;
#X connect 50 0 49 0;
#X connect 51 0 26 0;
#X connect 51 0 27 0;
#X connect 51 0 28 0;
#X connect 51 0 29 0;
#X connect 52 0 26 2;
#X connect 52 0 29 2;
#X connect 52 0 28 2;
#X connect 52 0 27 2;
#X connect 53 0 29 1;
#X connect 53 0 27 1;
#X connect 54 0 51 0;
#X connect 54 1 38 0;
#X connect 54 1 53 0;
#X connect 54 1 44 0;
#X connect 54 2 52 0;
#X coords 0 803 1 802 150 280 0;
