#N canvas 767 61 719 803 10;
#X obj 125 50 tgl 15 0 monophonic-\$1 in-monophonic-\$1 empty 17 7
0 10 -262144 -1 -1 0 1;
#X text 61 50 monophonic;
#X obj 125 30 tgl 15 0 power-\$1 in-power-\$1 empty 17 7 0 10 -262144
-1 -1 0 1;
#X text 91 30 power;
#X obj 125 70 tgl 15 0 master-\$1 in-master-\$1 empty 17 7 0 10 -262144
-1 -1 1 1;
#X text 85 70 master;
#X obj 145 30 bng 15 250 50 0 bang-\$1 in-bang-\$1 empty 17 7 0 10
-262144 -1 -1;
#X obj 28 155 hsl 128 15 0 100 0 0 ivary-\$1 in-ivary-\$1 empty -2
-8 0 10 -262144 -162280 -1 6350 1;
#X text 124 154 ivary;
#X obj 28 115 hsl 128 15 0 100 0 0 densite-\$1 in-densite-\$1 empty
-2 -8 0 10 -262144 -162280 -1 6350 1;
#X text 112 114 densite;
#X obj 28 135 hsl 128 15 0 100 0 0 plage-\$1 in-plage-\$1 empty -2
-8 0 10 -262144 -162280 -1 6350 1;
#X text 124 134 plage;
#X obj 28 255 hsl 128 15 1 100 0 0 yvone-\$1 in-yvone-\$1 empty -2
-8 0 10 -262144 -162280 -1 6286 1;
#X text 124 254 yvone;
#X obj 28 275 hsl 128 15 0 100 0 0 accords-\$1 in-accords-\$1 empty
-2 -8 0 10 -262144 -162280 -1 6350 1;
#X text 23 96 RYTHME;
#X text 23 216 TONALITE;
#X text 112 274 accords;
#X obj 557 599 loadbang;
#X obj 557 622 f \$1;
#X msg 557 645 \; in-power-\$1 0 \; in-master-\$1 1 \; in-monophonic-\$1
0 \; in-densite-\$1 50 \; in-plage-\$1 50 \; in-ivary-\$1 50 \; in-yvone-\$1
50 \; in-accords-\$1 50 \;;
#X obj 28 235 hsl 128 15 0 100 0 0 tony-\$1 in-tony-\$1 empty -2 -8
0 10 -262144 -162280 -1 0 1;
#X text 130 234 tony;
#X obj 28 175 hsl 128 15 0 100 0 0 silences-\$1 in-silences-\$1 empty
-2 -8 0 10 -262144 -162280 -1 0 1;
#X text 106 174 silences;
#X obj 414 158 variateur;
#X obj 414 248 variateur;
#X obj 363 435 lecteur, f 9;
#X obj 414 408 variateur;
#X obj 363 496 gamme;
#X obj 390 472 r gamme;
#X obj 363 546 +;
#X obj 378 519 r tonalite;
#X obj 363 579 noteduree;
#X obj 414 331 variateur;
#X obj 363 127 t b b;
#X obj 363 662 sortie;
#X obj 426 640 loadbang;
#X obj 426 663 f \$1;
#X obj 114 325 nbx 4 15 -1e+37 1e+37 0 0 \$1-vari-degre in-\$1-vari-degre
empty 0 -8 0 10 -262144 -1 -1 0 256;
#X obj 114 345 nbx 4 15 -1e+37 1e+37 0 0 \$1-vari-degre in-\$1-vari-degre
empty 0 -8 0 10 -262144 -1 -1 0 256;
#X obj 114 365 nbx 4 15 -1e+37 1e+37 0 0 \$1-vari-degre in-\$1-vari-degre
empty 0 -8 0 10 -262144 -1 -1 0 256;
#X obj 114 385 nbx 4 15 -1e+37 1e+37 0 0 \$1-vari-degre in-\$1-vari-degre
empty 0 -8 0 10 -262144 -1 -1 0 256;
#X text 484 158 degres;
#X text 484 248 ecarts;
#X text 484 328 velocites;
#X text 484 408 durees;
#X floatatom 553 69 5 0 0 0 - - -;
#X floatatom 567 180 5 0 0 0 - - -;
#X floatatom 572 274 5 0 0 0 - - -;
#X floatatom 566 367 5 0 0 0 - - -;
#X msg 529 34 0 2 4 5;
#X msg 566 242 50 50 50 50;
#X msg 566 335 750 750 750 750;
#X obj 293 51 metro 4000;
#X obj 310 20 tgl 15 0 empty empty empty 17 7 0 10 -262144 -1 -1 0
1;
#X obj 378 21 r ms;
#X obj 378 44 * 1;
#X obj 270 225 bng 15 250 50 0 empty empty empty 17 7 0 10 -262144
-1 -1;
#X obj 246 402 bng 15 250 50 0 empty empty empty 17 7 0 10 -262144
-1 -1;
#N canvas 5 61 700 657 ecarts 0;
#X msg 253 357 0;
#X msg 283 357 0.25;
#X msg 343 357 0.5;
#X msg 433 357 1;
#X msg 403 357 0.75;
#X msg 463 357 1.5;
#X msg 493 357 2;
#X msg 523 357 3;
#X msg 583 357 6;
#X msg 553 357 4;
#X msg 613 357 8;
#X msg 313 357 0.33;
#X msg 373 357 0.67;
#X obj 253 284 sel 0 1 2 3 4 5 6 7 8 9 10 11 12 13;
#X obj 253 420 f;
#X obj 253 177 until;
#X obj 253 256 list store;
#X obj 271 154 t b b l;
#X obj 253 210 f;
#X obj 283 210 + 1;
#X msg 253 233 get \$1 1;
#X msg 290 177 0;
#X obj 150 103 t b l b;
#X obj 150 524 list;
#X obj 171 470 list prepend;
#X obj 171 493 list;
#X obj 150 80 inlet ecarts(?);
#X obj 150 561 outlet ecrats(temps);
#X connect 0 0 14 0;
#X connect 1 0 14 0;
#X connect 2 0 14 0;
#X connect 3 0 14 0;
#X connect 4 0 14 0;
#X connect 5 0 14 0;
#X connect 6 0 14 0;
#X connect 7 0 14 0;
#X connect 8 0 14 0;
#X connect 9 0 14 0;
#X connect 10 0 14 0;
#X connect 11 0 14 0;
#X connect 12 0 14 0;
#X connect 13 0 0 0;
#X connect 13 1 1 0;
#X connect 13 2 11 0;
#X connect 13 3 2 0;
#X connect 13 4 12 0;
#X connect 13 5 4 0;
#X connect 13 6 3 0;
#X connect 13 7 5 0;
#X connect 13 8 6 0;
#X connect 13 9 7 0;
#X connect 13 10 9 0;
#X connect 13 11 8 0;
#X connect 13 12 10 0;
#X connect 14 0 24 0;
#X connect 15 0 18 0;
#X connect 16 0 13 0;
#X connect 16 1 15 1;
#X connect 17 0 15 0;
#X connect 17 1 21 0;
#X connect 17 2 16 1;
#X connect 18 0 19 0;
#X connect 18 0 20 0;
#X connect 19 0 18 1;
#X connect 20 0 16 0;
#X connect 21 0 18 1;
#X connect 22 0 23 0;
#X connect 22 1 17 0;
#X connect 22 2 24 1;
#X connect 23 0 27 0;
#X connect 24 0 25 0;
#X connect 25 0 24 1;
#X connect 25 0 23 1;
#X connect 26 0 22 0;
#X restore 414 273 pd ecarts;
#X obj 238 356 del 250;
#X msg 562 146 4 4 4 4;
#N canvas 214 172 581 544 accords 0;
#X obj 107 54 inlet;
#X obj 233 188 until;
#X obj 233 267 list store;
#X obj 233 221 f;
#X obj 263 221 + 1;
#X msg 233 244 get \$1 1;
#X msg 270 188 0;
#X obj 233 165 t b b;
#X obj 202 311 +;
#X obj 313 51 inlet intervalles-accords;
#X obj 107 423 list;
#X obj 128 369 list prepend;
#X obj 128 392 list;
#X obj 107 460 outlet accord;
#X obj 190 113 t b f;
#X obj 107 77 t b f b;
#X connect 0 0 15 0;
#X connect 1 0 3 0;
#X connect 2 0 8 0;
#X connect 2 1 1 1;
#X connect 3 0 4 0;
#X connect 3 0 5 0;
#X connect 4 0 3 1;
#X connect 5 0 2 0;
#X connect 6 0 3 1;
#X connect 7 0 1 0;
#X connect 7 1 6 0;
#X connect 8 0 11 0;
#X connect 9 0 2 1;
#X connect 10 0 13 0;
#X connect 11 0 12 0;
#X connect 12 0 11 1;
#X connect 12 0 10 1;
#X connect 14 0 7 0;
#X connect 14 1 8 1;
#X connect 15 0 10 0;
#X connect 15 1 14 0;
#X connect 15 2 11 1;
#X restore 305 467 pd accords;
#X msg 594 442 0;
#X connect 19 0 20 0;
#X connect 20 0 21 0;
#X connect 26 0 28 1;
#X connect 27 0 61 0;
#X connect 28 0 64 0;
#X connect 28 1 34 1;
#X connect 28 2 34 2;
#X connect 28 3 60 0;
#X connect 29 0 28 4;
#X connect 30 0 32 0;
#X connect 31 0 30 1;
#X connect 32 0 34 0;
#X connect 33 0 32 1;
#X connect 34 0 37 0;
#X connect 35 0 28 3;
#X connect 36 0 28 0;
#X connect 36 1 26 0;
#X connect 36 1 27 0;
#X connect 36 1 35 0;
#X connect 36 1 29 0;
#X connect 38 0 39 0;
#X connect 39 0 37 2;
#X connect 48 0 26 2;
#X connect 49 0 27 2;
#X connect 50 0 35 2;
#X connect 51 0 29 2;
#X connect 52 0 26 1;
#X connect 53 0 35 1;
#X connect 54 0 29 1;
#X connect 55 0 36 0;
#X connect 56 0 55 0;
#X connect 57 0 58 0;
#X connect 58 0 55 1;
#X connect 59 0 36 0;
#X connect 60 0 62 0;
#X connect 61 0 28 2;
#X connect 62 0 59 0;
#X connect 63 0 27 1;
#X connect 64 0 30 0;
#X connect 65 0 64 1;
#X coords 0 -1 1 1 150 280 1 20 20;
