#N canvas 0 96 1166 984 10;
#X obj 848 391 expr pow(2 \, $f1) * $f2;
#X obj 977 338 r ms;
#X obj 977 361 / 4;
#X obj 848 358 random 6;
#X obj 400 748 list store;
#X msg 400 704 get \$1 1;
#X obj 400 676 mod;
#X obj 400 603 t f f;
#X obj 444 666 expr if($f1>=$f2*2 \, 1 \, if($f1<$f2 \, -1 \, 0));
#X obj 371 69 t b b;
#X obj 786 789 r velocite;
#X obj 929 795 pipe;
#X obj 870 790 f;
#X obj 831 652 t f f b;
#X obj 870 707 spigot;
#X msg 929 750 clear;
#X obj 929 838 pack f 0;
#X obj 765 812 pack;
#X obj 125 50 tgl 15 0 monophonic-\$1 in-monophonic-\$1 empty 17 7
0 10 -262144 -1 -1 0 1;
#X text 61 50 monophonic;
#X obj 1001 835 loadbang;
#X obj 1001 858 f \$1;
#X obj 1001 881 * 16;
#X obj 1001 904 + 1;
#X obj 856 922 noteout;
#X obj 305 754 outlet;
#X obj 125 30 tgl 15 0 power-\$1 in-power-\$1 empty 17 7 0 10 -262144
-1 -1 1 1;
#X text 91 30 power;
#N canvas 0 96 553 486 rythme 0;
#X obj 163 265 r ms;
#X obj 86 342 metro;
#X obj 119 378 r power-\$1;
#X obj 96 139 r power;
#X obj 209 32 random 100;
#X obj 209 85 moses;
#X obj 210 108 t b;
#X obj 210 131 random;
#X obj 210 164 expr $f2+$f1-($f3/2);
#X obj 268 138 r densite-\$1;
#X obj 327 97 r plage-\$1;
#X obj 236 62 r ivary-\$1;
#X obj 210 280 expr pow(2 \, $f1-2);
#X obj 210 210 * 0.06;
#X obj 210 256 i;
#X obj 210 233 + 0.5;
#X obj 163 309 /;
#X obj 210 187 clip 0 100;
#X obj 259 300 expr pow(2 \, $f1-2)*3;
#X obj 86 405 spigot;
#X obj 86 435 outlet;
#X connect 0 0 16 0;
#X connect 1 0 4 0;
#X connect 1 0 19 0;
#X connect 2 0 19 1;
#X connect 3 0 1 0;
#X connect 4 0 5 0;
#X connect 5 0 6 0;
#X connect 6 0 7 0;
#X connect 7 0 8 0;
#X connect 8 0 17 0;
#X connect 9 0 8 1;
#X connect 10 0 8 2;
#X connect 10 0 7 1;
#X connect 11 0 5 1;
#X connect 12 0 16 1;
#X connect 13 0 15 0;
#X connect 14 0 12 0;
#X connect 14 0 18 0;
#X connect 15 0 14 0;
#X connect 16 0 1 1;
#X connect 17 0 13 0;
#X connect 19 0 20 0;
#X restore 61 378 pd rythme;
#X obj 400 815 +;
#X obj 415 788 * 12;
#X obj 400 891 +;
#X obj 415 867 + 12;
#X obj 415 844 r tonalite;
#X obj 457 725 r gamme;
#X obj 565 343 r gamme-length;
#X obj 693 642 r gamme-length;
#X obj 415 636 r gamme-length;
#N canvas 0 96 549 388 filtre 0;
#X obj 286 153 +;
#X obj 286 186 / 2;
#X obj 286 233 i;
#X obj 246 160 f;
#X obj 246 93 t b f;
#X obj 286 209 + 0.5;
#X obj 327 148 + 1;
#X obj 286 123 * 1;
#X obj 246 64 inlet;
#X obj 286 256 outlet;
#X obj 327 44 inlet;
#X obj 327 74 max 1;
#X connect 0 0 1 0;
#X connect 1 0 3 1;
#X connect 1 0 5 0;
#X connect 2 0 9 0;
#X connect 3 0 0 0;
#X connect 4 0 3 0;
#X connect 4 1 7 0;
#X connect 5 0 2 0;
#X connect 6 0 1 1;
#X connect 7 0 0 1;
#X connect 8 0 4 0;
#X connect 10 0 11 0;
#X connect 11 0 6 0;
#X connect 11 0 7 1;
#X restore 514 439 pd filtre;
#X obj 565 414 r yvone-\$1;
#X obj 281 156 inlet;
#X obj 125 70 tgl 15 0 master-\$1 in-master-\$1 empty 17 7 0 10 -262144
-1 -1 1 1;
#X text 85 70 master;
#X obj 386 132 r master-\$1;
#X obj 371 178 sel 0 1;
#X obj 311 273 f;
#X obj 371 155 f;
#X obj 145 30 bng 15 250 50 0 bang-\$1 in-bang-\$1 empty 17 7 0 10
-262144 -1 -1;
#X obj 28 155 hsl 128 15 0 100 0 0 ivary-\$1 in-ivary-\$1 empty -2
-8 0 10 -262144 -162280 -1 6350 1;
#X text 124 154 ivary;
#X obj 28 115 hsl 128 15 0 100 0 0 densite-\$1 in-densite-\$1 empty
-2 -8 0 10 -262144 -162280 -1 1350 1;
#X text 112 114 densite;
#X obj 28 135 hsl 128 15 0 100 0 0 plage-\$1 in-plage-\$1 empty -2
-8 0 10 -262144 -162280 -1 6350 1;
#X text 124 134 plage;
#X obj 28 255 hsl 128 15 1 100 0 0 yvone-\$1 in-yvone-\$1 empty -2
-8 0 10 -262144 -162280 -1 6286 1;
#X text 124 254 yvone;
#X obj 28 275 hsl 128 15 0 100 0 0 accords-\$1 in-accords-\$1 empty
-2 -8 0 10 -262144 -162280 -1 6350 1;
#X text 23 96 RYTHME;
#X text 23 216 TONALITE;
#X text 112 274 accords;
#X obj 311 296 t f b;
#X obj 326 322 random 3;
#X obj 326 345 * -2;
#X obj 311 370 +;
#X obj 400 497 t f f;
#N canvas 0 96 450 346 accord 0;
#X obj 164 83 random 100;
#X obj 164 136 moses;
#X obj 164 159 t b;
#X obj 164 182 random 3;
#X obj 191 281 +;
#X obj 191 229 * 2;
#X obj 164 205 sel 0;
#X obj 164 51 t b f, f 24;
#X obj 134 228 t b b;
#X msg 164 251 2;
#X msg 134 251 4;
#X obj 164 23 inlet;
#X obj 191 304 outlet;
#X obj 340 73 inlet;
#X connect 0 0 1 0;
#X connect 1 0 2 0;
#X connect 2 0 3 0;
#X connect 3 0 6 0;
#X connect 4 0 12 0;
#X connect 5 0 4 0;
#X connect 6 0 8 0;
#X connect 6 1 5 0;
#X connect 7 0 0 0;
#X connect 7 1 4 1;
#X connect 8 0 10 0;
#X connect 8 1 9 0;
#X connect 9 0 4 0;
#X connect 10 0 4 0;
#X connect 11 0 7 0;
#X connect 13 0 1 1;
#X restore 427 552 pd accord;
#X obj 478 528 r accords-\$1;
#X obj 848 444 s duree-\$1;
#X obj 950 772 r duree-\$1;
#X obj 903 662 r monophonic-\$1;
#X obj 830 621 r note-\$1;
#X obj 400 931 s note-\$1;
#X obj 890 39 loadbang;
#X obj 890 62 f \$1;
#X msg 890 85 \; in-power-\$1 0 \; in-master-\$1 1 \; in-monophonic-\$1
0 \; in-densite-\$1 50 \; in-plage-\$1 50 \; in-ivary-\$1 50 \; in-yvone-\$1
50 \; in-accords-\$1 50 \;;
#X obj 456 323 r degre;
#X obj 423 228 random 100;
#X obj 28 235 hsl 128 15 0 100 0 0 tony-\$1 in-tony-\$1 empty -2 -8
0 10 -262144 -162280 -1 0 1;
#X text 130 234 tony;
#N canvas 0 96 450 300 plage-tonalite 0;
#X obj 142 125 random;
#X obj 175 100 * 1;
#X obj 142 182 outlet;
#X obj 138 43 inlet;
#X obj 175 77 inlet;
#X connect 0 0 2 0;
#X connect 1 0 0 1;
#X connect 3 0 0 0;
#X connect 4 0 1 0;
#X restore 514 376 pd plage-tonalite;
#X obj 61 401 s in-bang-\$1;
#X obj 423 281 moses;
#X obj 451 257 r tony-\$1;
#X obj 423 324 t b;
#X obj 423 347 f;
#X obj 514 319 t b;
#N canvas 1138 371 450 479 silences 0;
#X obj 165 25 inlet;
#X obj 165 271 outlet;
#X obj 165 64 random 100;
#X obj 165 127 moses;
#X obj 165 180 t b;
#X obj 191 95 r silences-\$1;
#X connect 0 0 2 0;
#X connect 2 0 3 0;
#X connect 3 1 4 0;
#X connect 4 0 1 0;
#X connect 5 0 3 1;
#X restore 371 45 pd silences;
#X obj 372 22 r bang-\$1;
#X obj 28 175 hsl 128 15 0 100 0 0 silences-\$1 in-silences-\$1 empty
-2 -8 0 10 -262144 -162280 -1 1800 1;
#X text 106 174 silences;
#X connect 0 0 67 0;
#X connect 1 0 2 0;
#X connect 2 0 0 1;
#X connect 3 0 0 0;
#X connect 4 0 29 0;
#X connect 5 0 4 0;
#X connect 6 0 5 0;
#X connect 6 0 25 0;
#X connect 7 0 6 0;
#X connect 7 1 8 0;
#X connect 8 0 30 0;
#X connect 9 0 46 0;
#X connect 9 1 3 0;
#X connect 10 0 17 1;
#X connect 11 0 16 0;
#X connect 12 0 16 0;
#X connect 13 0 12 1;
#X connect 13 1 11 0;
#X connect 13 1 17 0;
#X connect 13 2 14 0;
#X connect 14 0 12 0;
#X connect 14 0 15 0;
#X connect 15 0 11 0;
#X connect 16 0 24 0;
#X connect 17 0 24 0;
#X connect 20 0 21 0;
#X connect 21 0 22 0;
#X connect 22 0 23 0;
#X connect 23 0 24 2;
#X connect 28 0 80 0;
#X connect 29 0 31 0;
#X connect 30 0 29 1;
#X connect 31 0 71 0;
#X connect 32 0 31 1;
#X connect 33 0 32 0;
#X connect 34 0 4 1;
#X connect 35 0 79 1;
#X connect 36 0 8 1;
#X connect 37 0 6 1;
#X connect 38 0 64 0;
#X connect 39 0 38 1;
#X connect 40 0 45 1;
#X connect 43 0 46 1;
#X connect 44 0 45 0;
#X connect 44 1 76 0;
#X connect 45 0 60 0;
#X connect 46 0 44 0;
#X connect 60 0 63 0;
#X connect 60 1 61 0;
#X connect 61 0 62 0;
#X connect 62 0 63 1;
#X connect 63 0 64 0;
#X connect 64 0 7 0;
#X connect 64 1 65 0;
#X connect 65 0 7 0;
#X connect 66 0 65 1;
#X connect 68 0 11 1;
#X connect 69 0 14 1;
#X connect 70 0 13 0;
#X connect 72 0 73 0;
#X connect 73 0 74 0;
#X connect 75 0 84 1;
#X connect 76 0 81 0;
#X connect 79 0 38 0;
#X connect 81 0 83 0;
#X connect 81 1 85 0;
#X connect 82 0 81 1;
#X connect 83 0 84 0;
#X connect 84 0 64 0;
#X connect 85 0 79 0;
#X connect 86 0 9 0;
#X connect 87 0 86 0;
#X coords 0 -1 1 1 150 280 1 20 20;
