#N canvas 325 61 973 803 10;
#X obj 381 35 inlet variabilite;
#X obj 96 750 outlet nouvelle-liste;
#X obj 255 222 until;
#X obj 255 331 list store;
#X obj 255 255 f;
#X obj 285 255 + 1;
#X msg 255 308 get \$1 1;
#X msg 292 222 0;
#X obj 96 30 inlet liste;
#X obj 255 278 t f b, f 16;
#X obj 96 126 list, f 7;
#X obj 96 149 t b l b;
#X obj 255 199 t b b l, f 10;
#X obj 108 93 t b l;
#X obj 348 308 random 100;
#X obj 348 446 * 1, f 23;
#X obj 381 108 t l l;
#X obj 409 131 list length;
#X obj 409 164 < 2;
#X obj 381 255 pack f f f;
#X obj 409 187 sel 1;
#X obj 449 187 sel 1;
#X obj 449 164 < 3;
#X msg 449 230 1;
#X msg 417 471 0;
#X text 388 55 plage \, pourcentage \, multiplicateur;
#X text 513 89 exemples :;
#X text 513 109 1 75 1;
#X text 513 179 2 50 3;
#X obj 348 377 random;
#X obj 348 400 + 1;
#X obj 348 423 *, f 8;
#X obj 348 354 t b b, f 8;
#X obj 393 377 random 2;
#X obj 393 400 expr $f1*2-1;
#X text 513 129 donnera les valeurs possibles -1 \, 0 \, 1, f 41;
#X text 513 199 donnera les valeurs possibles -6 \, -3 \, 0 \, 3 \,
6;
#X text 513 142 avec 75% de chance d'être différent de 0 (pour chaque
élement), f 62;
#X text 513 212 avec 50% de chance d'être différent de 0 (pour chaque
élement), f 62;
#X text 512 282 avec 20% de chance d'être différent de 0 (pour chaque
élement), f 62;
#X text 512 269 donnera les valeurs possibles -6 \, -4 \, -2 \, 0 \,
2 \, 4 \, 6;
#X text 512 249 3 20 2;
#X msg 409 230 50;
#X obj 96 53 route bang list float;
#X obj 348 331 moses 0, f 12;
#X obj 381 278 unpack f f f;
#X obj 255 507 +;
#X obj 96 723 list, f 7;
#X obj 165 629 list prepend;
#X obj 135 692 list;
#X obj 135 659 t b b;
#X obj 165 600 clip -999 999;
#X obj 202 576 route min max;
#X obj 202 100 inlet limites;
#X connect 0 0 16 0;
#X connect 2 0 4 0;
#X connect 3 0 46 0;
#X connect 3 1 2 1;
#X connect 4 0 5 0;
#X connect 4 0 9 0;
#X connect 5 0 4 1;
#X connect 6 0 3 0;
#X connect 7 0 4 1;
#X connect 8 0 43 0;
#X connect 9 0 6 0;
#X connect 9 1 14 0;
#X connect 10 0 11 0;
#X connect 11 0 47 0;
#X connect 11 1 12 0;
#X connect 11 2 50 0;
#X connect 12 0 2 0;
#X connect 12 1 7 0;
#X connect 12 2 3 1;
#X connect 13 0 10 0;
#X connect 13 1 10 1;
#X connect 14 0 44 0;
#X connect 15 0 46 1;
#X connect 16 0 19 0;
#X connect 16 1 17 0;
#X connect 17 0 18 0;
#X connect 17 0 22 0;
#X connect 18 0 20 0;
#X connect 19 0 45 0;
#X connect 20 0 42 0;
#X connect 20 0 23 0;
#X connect 21 0 23 0;
#X connect 22 0 21 0;
#X connect 23 0 19 2;
#X connect 24 0 46 1;
#X connect 29 0 30 0;
#X connect 30 0 31 0;
#X connect 31 0 15 0;
#X connect 32 0 29 0;
#X connect 32 1 33 0;
#X connect 33 0 34 0;
#X connect 34 0 31 1;
#X connect 42 0 19 1;
#X connect 43 0 10 0;
#X connect 43 1 13 0;
#X connect 43 2 13 0;
#X connect 44 0 32 0;
#X connect 44 1 24 0;
#X connect 45 0 29 1;
#X connect 45 1 44 1;
#X connect 45 2 15 1;
#X connect 46 0 51 0;
#X connect 47 0 1 0;
#X connect 48 0 49 0;
#X connect 49 0 48 1;
#X connect 49 0 47 1;
#X connect 50 0 49 0;
#X connect 50 1 49 1;
#X connect 51 0 48 0;
#X connect 52 0 51 1;
#X connect 52 1 51 2;
#X connect 53 0 52 0;
