#N canvas 605 119 532 527 10;
#X obj 327 117 inlet variabilite;
#X obj 96 47 inlet bang;
#X obj 96 457 outlet nouvelle-liste;
#X obj 96 420 list;
#X obj 201 152 until;
#X obj 201 261 list store;
#X obj 201 185 f;
#X obj 231 185 + 1;
#X msg 201 238 get \$1 1;
#X msg 238 152 0;
#X obj 201 129 t b b;
#X obj 117 366 list prepend;
#X obj 117 389 list;
#X obj 96 70 t b b b;
#X obj 258 77 inlet liste;
#X obj 201 208 t f b, f 16;
#X obj 294 238 random;
#X obj 327 192 * 2;
#X obj 327 215 + 1;
#X obj 327 169 t f f;
#X obj 201 314 +;
#X obj 294 261 -, f 9;
#X connect 0 0 19 0;
#X connect 1 0 13 0;
#X connect 3 0 2 0;
#X connect 4 0 6 0;
#X connect 5 0 20 0;
#X connect 5 1 4 1;
#X connect 6 0 7 0;
#X connect 6 0 15 0;
#X connect 7 0 6 1;
#X connect 8 0 5 0;
#X connect 9 0 6 1;
#X connect 10 0 4 0;
#X connect 10 1 9 0;
#X connect 11 0 12 0;
#X connect 12 0 11 1;
#X connect 12 0 3 1;
#X connect 13 0 3 0;
#X connect 13 1 10 0;
#X connect 13 2 11 1;
#X connect 14 0 5 1;
#X connect 15 0 8 0;
#X connect 15 1 16 0;
#X connect 16 0 21 0;
#X connect 17 0 18 0;
#X connect 18 0 16 1;
#X connect 19 0 17 0;
#X connect 19 1 21 1;
#X connect 20 0 11 0;
#X connect 21 0 20 1;
