#N canvas 398 96 1272 984 10;
#X obj 827 145 expr pow(2 \, $f1) * $f2;
#X obj 956 92 r ms;
#X obj 956 115 / 4;
#X obj 827 112 random 6;
#X obj 545 527 list store;
#X msg 545 463 get \$1 1;
#X obj 650 226 list length;
#X obj 650 201 r gamme;
#X obj 705 760 +;
#X obj 625 527 list store;
#X msg 625 463 get \$1 1;
#X obj 705 527 list store;
#X msg 705 463 get \$1 1;
#X obj 625 338 + 2;
#X obj 625 431 mod;
#X obj 625 361 t f f;
#X obj 650 291 t f f;
#X obj 662 410 * 12;
#X obj 625 550 +;
#X obj 705 431 mod;
#X obj 705 361 t f f;
#X obj 730 291 t f f;
#X obj 742 410 * 12;
#X obj 705 550 +;
#X obj 662 387 >=;
#X obj 742 387 >=;
#X obj 762 493 r gamme;
#X obj 705 338 + 4;
#X obj 705 813 +;
#X obj 818 658 r metro;
#X obj 818 681 random 8;
#X obj 818 704 sel 1;
#X obj 818 727 random 3;
#X obj 818 750 - 1;
#X obj 720 786 * 12;
#X obj 650 249 t f f;
#X obj 545 282 t f f f;
#X obj 572 170 f;
#X obj 545 90 random 3;
#X obj 545 113 * -2;
#X obj 545 136 t f b;
#X obj 545 199 +;
#X obj 545 252 mod;
#X obj 720 736 + 0;
#X obj 165 460 metro;
#X obj 223 340 1;
#X obj 254 340 2;
#X obj 285 339 3;
#X obj 317 339 4;
#X obj 344 341 6;
#X obj 377 338 8;
#X obj 408 337 12;
#X obj 192 397 / 1;
#X obj 192 231 t f b;
#X obj 192 208 r ms;
#X obj 223 292 sel 0 1 2 3 4 5 6 7 8 9;
#X obj 223 268 random 10;
#X obj 165 488 s \$0-rythme;
#X obj 742 22 r \$0-rythme;
#X obj 1003 663 t f f;
#X obj 1116 746 pipe;
#X obj 1116 769 pack f 0;
#X obj 1003 632 r \$0-note;
#X obj 705 920 s \$0-note;
#X obj 827 198 s \$0-duree;
#X obj 1137 723 r \$0-duree;
#X obj 1003 756 pack;
#X obj 1042 806 loadbang;
#X obj 1042 829 f \$1;
#X obj 1042 852 * 16;
#X obj 1042 875 + 1;
#X obj 1003 903 noteout;
#X obj 720 713 r tonalite;
#X obj 1024 729 r velocite;
#X obj 742 50 t b b;
#X obj 615 13 inlet;
#X obj 25 41 nbx 4 14 -1e+37 1e+37 0 0 \$0-octave \$0-in-octave empty
0 -8 0 10 -262144 -1 -1 0 256;
#X obj 720 846 r \$0-octave;
#X obj 720 869 * 12;
#X obj 705 893 +;
#X text 73 40 octave;
#X obj 650 649 pipe;
#X obj 867 432 sel 1;
#X msg 894 457 0;
#X obj 867 545 random;
#X obj 900 498 r ms;
#X obj 867 568 t f f;
#X obj 893 595 * 2;
#X obj 705 647 pipe;
#X obj 900 521 / 5;
#X obj 867 409 random 3;
#X obj 192 420 * 4;
#X obj 66 395 r metro;
#X obj 66 418 spigot;
#X obj 122 374 r power;
#X connect 0 0 64 0;
#X connect 1 0 2 0;
#X connect 2 0 0 1;
#X connect 3 0 0 0;
#X connect 4 0 8 0;
#X connect 5 0 4 0;
#X connect 6 0 35 0;
#X connect 7 0 6 0;
#X connect 8 0 28 0;
#X connect 9 0 18 0;
#X connect 10 0 9 0;
#X connect 11 0 23 0;
#X connect 12 0 11 0;
#X connect 13 0 15 0;
#X connect 14 0 10 0;
#X connect 15 0 14 0;
#X connect 15 1 24 0;
#X connect 16 0 14 1;
#X connect 16 1 24 1;
#X connect 17 0 18 1;
#X connect 18 0 81 0;
#X connect 19 0 12 0;
#X connect 20 0 19 0;
#X connect 20 1 25 0;
#X connect 21 0 19 1;
#X connect 21 1 25 1;
#X connect 22 0 23 1;
#X connect 23 0 88 0;
#X connect 24 0 17 0;
#X connect 25 0 22 0;
#X connect 26 0 11 1;
#X connect 26 0 9 1;
#X connect 26 0 4 1;
#X connect 27 0 20 0;
#X connect 28 0 79 0;
#X connect 29 0 30 0;
#X connect 30 0 31 0;
#X connect 31 0 32 0;
#X connect 32 0 33 0;
#X connect 33 0 34 0;
#X connect 34 0 28 1;
#X connect 35 0 16 0;
#X connect 35 0 42 1;
#X connect 35 1 21 0;
#X connect 36 0 5 0;
#X connect 36 1 13 0;
#X connect 36 2 27 0;
#X connect 37 0 41 1;
#X connect 38 0 39 0;
#X connect 39 0 40 0;
#X connect 40 0 41 0;
#X connect 40 1 37 0;
#X connect 41 0 42 0;
#X connect 42 0 36 0;
#X connect 43 0 8 1;
#X connect 44 0 57 0;
#X connect 45 0 52 1;
#X connect 46 0 52 1;
#X connect 47 0 52 1;
#X connect 48 0 52 1;
#X connect 49 0 52 1;
#X connect 50 0 52 1;
#X connect 51 0 52 1;
#X connect 52 0 91 0;
#X connect 53 0 52 0;
#X connect 53 1 56 0;
#X connect 54 0 53 0;
#X connect 55 0 45 0;
#X connect 55 1 45 0;
#X connect 55 2 46 0;
#X connect 55 3 46 0;
#X connect 55 4 47 0;
#X connect 55 5 48 0;
#X connect 55 6 48 0;
#X connect 55 7 49 0;
#X connect 55 8 50 0;
#X connect 55 9 51 0;
#X connect 56 0 55 0;
#X connect 58 0 74 0;
#X connect 59 0 66 0;
#X connect 59 1 60 0;
#X connect 60 0 61 0;
#X connect 61 0 71 0;
#X connect 62 0 59 0;
#X connect 65 0 60 1;
#X connect 66 0 71 0;
#X connect 67 0 68 0;
#X connect 68 0 69 0;
#X connect 69 0 70 0;
#X connect 70 0 71 2;
#X connect 72 0 43 0;
#X connect 73 0 66 1;
#X connect 74 0 38 0;
#X connect 74 1 3 0;
#X connect 74 1 90 0;
#X connect 75 0 37 1;
#X connect 77 0 78 0;
#X connect 78 0 79 1;
#X connect 79 0 63 0;
#X connect 81 0 8 0;
#X connect 82 1 83 0;
#X connect 83 0 81 1;
#X connect 83 0 88 1;
#X connect 84 0 86 0;
#X connect 85 0 89 0;
#X connect 86 0 81 1;
#X connect 86 1 87 0;
#X connect 87 0 88 1;
#X connect 88 0 8 0;
#X connect 89 0 84 1;
#X connect 90 0 82 0;
#X connect 91 0 44 1;
#X connect 92 0 93 0;
#X connect 94 0 44 0;
#X connect 94 0 93 1;
#X coords 0 -1 1 1 100 40 1 20 20;
