#N canvas 5 61 452 415 10;
#X obj 189 123 outlet;
#X obj 130 269 list, f 7;
#X obj 189 183 list prepend;
#X obj 169 246 list, f 5;
#X obj 169 213 t b b;
#X obj 130 292 outlet;
#X obj 130 61 inlet;
#X obj 189 160 inlet;
#X obj 130 84 t b a b;
#X connect 1 0 5 0;
#X connect 2 0 3 0;
#X connect 3 0 2 1;
#X connect 3 0 1 1;
#X connect 4 0 3 0;
#X connect 4 1 3 1;
#X connect 6 0 8 0;
#X connect 7 0 2 0;
#X connect 8 0 1 0;
#X connect 8 1 0 0;
#X connect 8 2 4 0;
