#N canvas 5 61 600 568 10;
#X msg 150 217 0;
#X msg 180 217 0.25;
#X msg 240 217 0.5;
#X msg 330 217 1;
#X msg 300 217 0.75;
#X msg 360 217 1.5;
#X msg 390 217 2;
#X msg 420 217 3;
#X msg 480 217 6;
#X msg 450 217 4;
#X msg 510 217 8;
#X msg 210 217 0.33;
#X msg 270 217 0.67;
#X obj 150 280 f;
#X obj 81 73 t b l b;
#X obj 150 325 *;
#X obj 165 303 r ms;
#X obj 81 481 outlet divisions_temps(ms);
#X obj 150 144 sel 0 1 2 3 4 5 6 7 8 9 10 11 12;
#X obj 81 446 list, f 7;
#X obj 150 352 list prepend;
#X obj 120 415 list;
#X obj 120 382 t b b;
#X obj 81 50 inlet divisions_temps(encodees);
#X obj 150 120 serialiseur;
#X connect 0 0 13 0;
#X connect 1 0 13 0;
#X connect 2 0 13 0;
#X connect 3 0 13 0;
#X connect 4 0 13 0;
#X connect 5 0 13 0;
#X connect 6 0 13 0;
#X connect 7 0 13 0;
#X connect 8 0 13 0;
#X connect 9 0 13 0;
#X connect 10 0 13 0;
#X connect 11 0 13 0;
#X connect 12 0 13 0;
#X connect 13 0 15 0;
#X connect 14 0 19 0;
#X connect 14 1 24 0;
#X connect 14 2 22 0;
#X connect 15 0 20 0;
#X connect 16 0 15 1;
#X connect 18 0 0 0;
#X connect 18 1 1 0;
#X connect 18 2 11 0;
#X connect 18 3 2 0;
#X connect 18 4 12 0;
#X connect 18 5 4 0;
#X connect 18 6 3 0;
#X connect 18 7 5 0;
#X connect 18 8 6 0;
#X connect 18 9 7 0;
#X connect 18 10 9 0;
#X connect 18 11 8 0;
#X connect 18 12 10 0;
#X connect 19 0 17 0;
#X connect 20 0 21 0;
#X connect 21 0 20 1;
#X connect 21 0 19 1;
#X connect 22 0 21 0;
#X connect 22 1 21 1;
#X connect 23 0 14 0;
#X connect 24 0 18 0;
