#N canvas 501 188 631 676 10;
#X obj 145 192 until;
#X obj 76 586 list, f 7;
#X obj 145 492 list prepend;
#X obj 115 555 list;
#X obj 76 619 outlet liste;
#X obj 76 122 f 1;
#X obj 145 215 t b b;
#X obj 172 317 random 3;
#X obj 172 340 - 1;
#X obj 229 317 random;
#X obj 172 363 +;
#X obj 172 386 *;
#X obj 262 154 t f f;
#X obj 289 317 != 0;
#X obj 172 294 t b b, f 10;
#X obj 172 439 expr if($f1>$f2 \, $f2-1 \, if($f1<$f3 \, $f3+1 \, $f1))
;
#X obj 172 409 +;
#X obj 202 409 f;
#X obj 145 469 f;
#X obj 76 145 t b f b b, f 10;
#X obj 172 271 moses, f 10;
#X obj 172 238 random 100;
#X obj 115 522 t b b;
#X obj 202 192 random;
#X obj 457 405 r \$1-\$2-GEN-lim-min;
#X obj 314 405 r \$1-\$2-GEN-lim-max;
#X obj 262 98 r \$1-\$2-GEN-var-amp;
#X obj 322 208 r \$1-\$2-GEN-var-chance;
#X obj 76 82 inlet taille;
#X connect 0 0 6 0;
#X connect 1 0 4 0;
#X connect 2 0 3 0;
#X connect 3 0 2 1;
#X connect 3 0 1 1;
#X connect 5 0 19 0;
#X connect 6 0 18 0;
#X connect 6 1 21 0;
#X connect 7 0 8 0;
#X connect 8 0 10 0;
#X connect 9 0 10 1;
#X connect 10 0 11 0;
#X connect 11 0 16 0;
#X connect 12 0 9 1;
#X connect 12 0 23 1;
#X connect 12 1 13 0;
#X connect 13 0 11 1;
#X connect 14 0 7 0;
#X connect 14 1 9 0;
#X connect 15 0 17 0;
#X connect 15 0 18 1;
#X connect 16 0 15 0;
#X connect 17 0 16 1;
#X connect 18 0 2 0;
#X connect 19 0 1 0;
#X connect 19 1 0 0;
#X connect 19 2 22 0;
#X connect 19 3 23 0;
#X connect 20 0 14 0;
#X connect 21 0 20 0;
#X connect 22 0 3 0;
#X connect 22 1 3 1;
#X connect 23 0 17 0;
#X connect 24 0 15 2;
#X connect 25 0 15 1;
#X connect 26 0 12 0;
#X connect 27 0 20 1;
#X connect 28 0 5 0;
