#N canvas 214 103 1095 969 10;
#X floatatom 235 157 5 0 0 0 - - -;
#X obj 197 305 metro;
#X obj 176 322 bng 15 250 50 0 empty empty empty 17 7 0 10 -262144
-1 -1;
#X obj 428 177 1;
#X obj 281 179 3;
#X obj 315 184 4;
#X obj 355 180 6;
#X obj 388 177 8;
#X obj 224 252 / 1;
#X obj 254 131 sel 0 1 2 3 4 5 6 7 8 9 10;
#X obj 254 107 random 11;
#X obj 225 71 t f b;
#X obj 225 48 r ms;
#X obj 197 333 s \$0-rythme;
#X obj 726 276 expr pow(2 \, $f1) * $f2;
#X obj 855 223 r ms;
#X obj 855 246 / 4;
#X obj 726 243 random 6;
#X obj 726 329 s \$0-duree;
#X obj 558 146 r \$0-rythme;
#X obj 528 385 random;
#X obj 527 670 list store;
#X msg 527 626 get \$1 1;
#X obj 649 271 t a a;
#X obj 561 314 list length;
#X obj 649 248 r gamme;
#X obj 527 753 +;
#X obj 542 729 + 12;
#X obj 542 706 r tonalite;
#X obj 527 458 +;
#X obj 527 481 / 2;
#X obj 527 532 i;
#X obj 527 435 f;
#X obj 527 408 t b f;
#X obj 527 504 + 0.5;
#X obj 527 827 +;
#X obj 542 800 * 12;
#X obj 561 337 t f f;
#X obj 561 360 * 3;
#X obj 527 598 mod;
#X obj 527 555 t f f;
#X obj 571 588 expr if($f1>=$f2*2 \, 1 \, if($f1<$f2 \, -1 \, 0));
#X obj 558 169 t b b;
#X obj 786 778 r velocite;
#X obj 929 784 pipe;
#X obj 870 779 f;
#X obj 831 671 t f f b;
#X obj 870 726 spigot;
#X msg 929 739 clear;
#X obj 929 827 pack f 0;
#X obj 765 801 pack;
#X obj 527 853 s \$0-note;
#X obj 830 640 r \$0-note;
#X obj 903 681 r \$0-monophonic;
#X obj 950 761 r \$0-duree;
#X obj 25 40 tgl 15 0 \$0-monophonic \$0-in-monophonic empty 17 7 0
10 -262144 -1 -1 0 1;
#X text 46 38 monophonic;
#X obj 1001 824 loadbang;
#X obj 1001 847 f \$1;
#X obj 1001 870 * 16;
#X obj 1001 893 + 1;
#X obj 856 911 noteout;
#X obj 432 676 outlet;
#X obj 224 275 * 2;
#X obj 39 206 r metro;
#X obj 39 229 spigot;
#X obj 106 173 r power;
#X connect 1 0 2 0;
#X connect 1 0 13 0;
#X connect 3 0 8 1;
#X connect 4 0 8 1;
#X connect 5 0 8 1;
#X connect 6 0 8 1;
#X connect 7 0 8 1;
#X connect 8 0 63 0;
#X connect 9 0 4 0;
#X connect 9 1 4 0;
#X connect 9 2 4 0;
#X connect 9 3 4 0;
#X connect 9 4 5 0;
#X connect 9 5 5 0;
#X connect 9 6 5 0;
#X connect 9 7 5 0;
#X connect 9 8 6 0;
#X connect 9 9 7 0;
#X connect 9 10 3 0;
#X connect 10 0 0 0;
#X connect 10 0 9 0;
#X connect 11 0 8 0;
#X connect 11 1 10 0;
#X connect 12 0 11 0;
#X connect 14 0 18 0;
#X connect 15 0 16 0;
#X connect 16 0 14 1;
#X connect 17 0 14 0;
#X connect 19 0 42 0;
#X connect 20 0 33 0;
#X connect 21 0 26 0;
#X connect 22 0 21 0;
#X connect 23 0 24 0;
#X connect 23 1 21 1;
#X connect 24 0 37 0;
#X connect 25 0 23 0;
#X connect 26 0 35 0;
#X connect 27 0 26 1;
#X connect 28 0 27 0;
#X connect 29 0 30 0;
#X connect 30 0 32 1;
#X connect 30 0 34 0;
#X connect 31 0 40 0;
#X connect 32 0 29 0;
#X connect 33 0 32 0;
#X connect 33 1 29 1;
#X connect 34 0 31 0;
#X connect 35 0 51 0;
#X connect 36 0 35 1;
#X connect 37 0 38 0;
#X connect 37 1 39 1;
#X connect 37 1 41 1;
#X connect 38 0 20 1;
#X connect 39 0 22 0;
#X connect 39 0 62 0;
#X connect 40 0 39 0;
#X connect 40 1 41 0;
#X connect 41 0 36 0;
#X connect 42 0 20 0;
#X connect 42 1 17 0;
#X connect 43 0 50 1;
#X connect 44 0 49 0;
#X connect 45 0 49 0;
#X connect 46 0 45 1;
#X connect 46 1 44 0;
#X connect 46 1 50 0;
#X connect 46 2 47 0;
#X connect 46 2 48 0;
#X connect 47 0 45 0;
#X connect 48 0 44 0;
#X connect 49 0 61 0;
#X connect 50 0 61 0;
#X connect 52 0 46 0;
#X connect 53 0 47 1;
#X connect 54 0 44 1;
#X connect 57 0 58 0;
#X connect 58 0 59 0;
#X connect 59 0 60 0;
#X connect 60 0 61 2;
#X connect 63 0 1 1;
#X connect 64 0 65 0;
#X connect 66 0 1 0;
#X connect 66 0 65 1;
#X coords 0 -1 1 1 100 40 1 20 20;
