#N canvas 70 273 700 487 10;
#X obj 142 283 list store;
#X obj 142 151 t b b l, f 10;
#X obj 142 197 f;
#X obj 172 197 + 1;
#X msg 142 220 get \$1 1;
#X msg 170 174 0;
#X obj 142 56 inlet bang;
#X obj 232 283 list store;
#X obj 142 336 pipe, f 5;
#X obj 142 359 t f b;
#X obj 142 109 list;
#X obj 223 66 inlet degres;
#X obj 499 176 inlet durees;
#X obj 442 283 list store;
#X obj 289 96 inlet ecarts;
#X obj 322 283 list store;
#X obj 379 126 inlet velocites;
#X obj 142 243 t a a a a;
#X obj 142 406 outlet degre;
#X obj 322 406 outlet velocite;
#X obj 442 406 outlet duree;
#X obj 535 406 outlet fin-de-sequence;
#X obj 142 79 t b;
#X connect 0 0 8 0;
#X connect 1 0 2 0;
#X connect 1 1 5 0;
#X connect 1 2 0 1;
#X connect 2 0 3 0;
#X connect 2 0 4 0;
#X connect 3 0 2 1;
#X connect 4 0 17 0;
#X connect 5 0 2 1;
#X connect 6 0 22 0;
#X connect 7 0 8 1;
#X connect 8 0 9 0;
#X connect 9 0 18 0;
#X connect 9 1 2 0;
#X connect 10 0 1 0;
#X connect 11 0 10 1;
#X connect 12 0 13 1;
#X connect 13 0 20 0;
#X connect 13 1 21 0;
#X connect 14 0 7 1;
#X connect 15 0 19 0;
#X connect 16 0 15 1;
#X connect 17 0 0 0;
#X connect 17 1 7 0;
#X connect 17 2 15 0;
#X connect 17 3 13 0;
#X connect 22 0 10 0;
