#N canvas 5 61 527 336 10;
#X obj 201 84 inlet mutation;
#X obj 201 240 list, f 5;
#X obj 132 44 inlet liste;
#X obj 356 174 inlet liste_mutee;
#X obj 132 284 outlet liste;
#X obj 201 180 route list bang;
#X obj 201 203 t l b;
#X obj 132 107 list prepend;
#X obj 132 130 route 0 1;
#X connect 0 0 7 1;
#X connect 1 0 4 0;
#X connect 2 0 7 0;
#X connect 3 0 1 1;
#X connect 5 0 6 0;
#X connect 5 1 1 0;
#X connect 6 0 1 0;
#X connect 6 1 1 1;
#X connect 7 0 8 0;
#X connect 8 0 4 0;
#X connect 8 1 5 0;
