#N canvas 5 252 586 300 10;
#X obj 198 165 spigot;
#X obj 198 188 f \$1;
#X obj 212 51 r roue-deg-\$1;
#X obj 88 211 s roue-bang;
#X obj 198 211 s roue-degres;
#X obj 212 74 t b f b;
#X obj 308 211 s roue-init;
#X obj 88 74 sel \$1;
#X obj 88 51 r in-roue-degres;
#X msg 357 145 color \$1 1 22;
#X obj 357 168 s in-roue-deg-\$1;
#X connect 0 0 1 0;
#X connect 1 0 4 0;
#X connect 2 0 5 0;
#X connect 5 0 3 0;
#X connect 5 1 0 1;
#X connect 5 1 9 0;
#X connect 5 2 6 0;
#X connect 7 0 0 0;
#X connect 8 0 7 0;
#X connect 9 0 10 0;
