#N canvas 715 221 450 300 10;
#X obj 182 90 until;
#X obj 182 169 list store;
#X obj 182 67 t b b l, f 10;
#X obj 182 123 f;
#X obj 212 123 + 1;
#X msg 182 146 get \$1 1;
#X msg 219 90 0;
#X obj 182 44 inlet liste;
#X obj 182 192 outlet elements;
#X connect 0 0 3 0;
#X connect 1 0 8 0;
#X connect 1 1 0 1;
#X connect 2 0 0 0;
#X connect 2 1 6 0;
#X connect 2 2 1 1;
#X connect 3 0 4 0;
#X connect 3 0 5 0;
#X connect 4 0 3 1;
#X connect 5 0 1 0;
#X connect 6 0 3 1;
#X connect 7 0 2 0;
