#N canvas 231 61 742 803 10;
#X obj 250 695 outlet nouvelle-liste;
#X obj 319 167 until;
#X obj 319 276 list store;
#X obj 319 200 f;
#X obj 349 200 + 1;
#X msg 319 253 get \$1 1;
#X msg 356 167 0;
#X obj 319 223 t f b, f 16;
#X obj 250 94 t b l b;
#X obj 319 144 t b b l, f 10;
#X obj 412 253 random 100;
#X obj 412 391 * 1, f 23;
#X msg 481 416 0;
#X obj 412 322 random;
#X obj 412 345 + 1;
#X obj 412 368 *, f 8;
#X obj 412 299 t b b, f 8;
#X obj 457 322 random 2;
#X obj 457 345 expr $f1*2-1;
#X obj 412 276 moses 0, f 12;
#X obj 319 452 +;
#X obj 250 668 list, f 7;
#X obj 319 574 list prepend;
#X obj 289 637 list;
#X obj 289 604 t b b;
#X obj 319 545 clip -999 999;
#X obj 356 490 r \$1-\$2-VAR-lim-min;
#X obj 394 520 r \$1-\$2-VAR-lim-max;
#X obj 445 172 r \$1-\$2-VAR-var-amp;
#X obj 481 192 r \$1-\$2-VAR-var-chance;
#X obj 547 212 r \$1-\$2-VAR-var-x;
#N canvas 370 286 577 429 mutation 0;
#X obj 215 281 list, f 5;
#X obj 146 85 inlet liste;
#X obj 370 215 inlet liste_mutee;
#X obj 146 325 outlet liste;
#X obj 215 221 route list bang;
#X obj 215 244 t l b;
#X obj 146 148 list prepend;
#X obj 146 171 route 0 1;
#X obj 215 125 r \$1-\$2-VAR-var-mutation;
#X connect 0 0 3 0;
#X connect 1 0 6 0;
#X connect 2 0 0 1;
#X connect 4 0 5 0;
#X connect 4 1 0 0;
#X connect 5 0 0 0;
#X connect 5 1 0 1;
#X connect 6 0 7 0;
#X connect 7 0 3 0;
#X connect 7 1 4 0;
#X connect 8 0 6 1;
#X restore 90 255 pd mutation;
#X obj 90 32 inlet liste;
#X obj 90 128 list, f 7;
#X obj 102 95 t b l;
#X obj 90 55 route bang list float;
#X connect 1 0 3 0;
#X connect 2 0 20 0;
#X connect 2 1 1 1;
#X connect 3 0 4 0;
#X connect 3 0 7 0;
#X connect 4 0 3 1;
#X connect 5 0 2 0;
#X connect 6 0 3 1;
#X connect 7 0 5 0;
#X connect 7 1 10 0;
#X connect 8 0 21 0;
#X connect 8 1 9 0;
#X connect 8 2 24 0;
#X connect 9 0 1 0;
#X connect 9 1 6 0;
#X connect 9 2 2 1;
#X connect 10 0 19 0;
#X connect 11 0 20 1;
#X connect 12 0 20 1;
#X connect 13 0 14 0;
#X connect 14 0 15 0;
#X connect 15 0 11 0;
#X connect 16 0 13 0;
#X connect 16 1 17 0;
#X connect 17 0 18 0;
#X connect 18 0 15 1;
#X connect 19 0 16 0;
#X connect 19 1 12 0;
#X connect 20 0 25 0;
#X connect 21 0 0 0;
#X connect 21 0 31 1;
#X connect 22 0 23 0;
#X connect 23 0 22 1;
#X connect 23 0 21 1;
#X connect 24 0 23 0;
#X connect 24 1 23 1;
#X connect 25 0 22 0;
#X connect 26 0 25 1;
#X connect 27 0 25 2;
#X connect 28 0 13 1;
#X connect 29 0 19 1;
#X connect 30 0 11 1;
#X connect 31 0 8 0;
#X connect 32 0 35 0;
#X connect 33 0 31 0;
#X connect 34 0 33 0;
#X connect 34 1 33 1;
#X connect 35 0 33 0;
#X connect 35 1 34 0;
#X connect 35 2 34 0;
