#N canvas 558 61 788 767 10;
#X declare -path abs;
#X obj 35 93 bng 30 250 50 0 out-metro metro empty 17 7 0 10 -1 -258113
-1;
#X obj 35 55 tgl 30 0 power in-power empty 17 7 0 10 -1 -4034 -1 0
1;
#X obj 378 11 tgl 15 0 empty empty empty 17 7 0 10 -262144 -1 -1 0
1;
#X obj 139 64 nbx 7 15 1 99999 1 0 tempo in-tempo bpm 47 8 0 10 -262144
-1 -1 120 256;
#X obj 138 114 nbx 5 15 -1e+37 1e+37 0 0 tonalite in-tonalite empty
0 -8 0 10 -262144 -1 -1 36 256;
#X text 135 94 tonalite;
#X text 137 44 tempo;
#X text 415 77 diat;
#X text 415 106 harm;
#X text 414 139 dharm;
#X text 416 168 pent;
#X obj 376 72 vradio 30 1 0 4 gamme-select in-gamme-select empty 0
-8 0 10 -262144 -162280 -1 0;
#X msg 598 73 0 2 4 5 7 9 11;
#X msg 598 97 0 1 4 5 7 8 10;
#X msg 597 123 0 1 4 5 7 8 11;
#X obj 526 41 sel 0 1 2 3;
#X msg 598 147 0 2 4 7 9;
#X msg 598 177 0 1 4 6 8 10 11;
#X msg 598 207 0 1 3 4 6 7 9 10;
#X obj 526 17 r gamme-select;
#X obj 526 403 s gamme;
#X obj 138 162 nbx 5 15 -1e+37 1e+37 0 0 degre in-degre empty 0 -8
0 10 -262144 -1 -1 0 256;
#X text 135 142 degre;
#X obj 35 677 sortie;
#X msg 94 678 0;
#X obj 94 655 loadbang;
#X msg 598 232 0 2 3 6 7 9 10;
#N canvas 1072 88 471 725 roue-degres 0;
#X obj 90 309 t b b;
#X msg 90 332 12;
#X obj 90 355 until;
#X obj 90 378 i;
#X obj 120 378 + 1;
#X msg 117 332 0;
#X obj 63 253 r roue-bang;
#X obj 84 457 r roue-init;
#X obj 63 629 list;
#X obj 114 535 list prepend;
#X obj 84 598 list, f 5;
#X obj 84 565 t b b;
#X obj 63 286 t b b;
#X obj 90 411 s in-roue-degres;
#X obj 114 497 r roue-degres;
#X obj 70 40 tgl 15 0 roue-deg-0 in-roue-deg-0 empty 17 7 0 10 -166441
-166441 -1 1 1;
#X obj 70 130 tgl 15 0 roue-deg-6 in-roue-deg-6 empty 17 7 0 10 -262144
-166441 -1 0 1;
#X obj 115 85 tgl 15 0 roue-deg-3 in-roue-deg-3 empty 17 7 0 10 -262144
-166441 -1 0 1;
#X obj 25 85 tgl 15 0 roue-deg-9 in-roue-deg-9 empty 17 7 0 10 -166441
-166441 -1 1 1;
#X obj 32 65 tgl 15 0 roue-deg-10 in-roue-deg-10 empty 17 7 0 10 -262144
-166441 -1 0 1;
#X obj 50 47 tgl 15 0 roue-deg-11 in-roue-deg-11 empty 17 7 0 10 -166441
-166441 -1 1 1;
#X obj 90 47 tgl 15 0 roue-deg-1 in-roue-deg-1 empty 17 7 0 10 -262144
-166441 -1 0 1;
#X obj 108 65 tgl 15 0 roue-deg-2 in-roue-deg-2 empty 17 7 0 10 -166441
-166441 -1 1 1;
#X obj 108 105 tgl 15 0 roue-deg-4 in-roue-deg-4 empty 17 7 0 10 -166441
-166441 -1 1 1;
#X obj 90 123 tgl 15 0 roue-deg-5 in-roue-deg-5 empty 17 7 0 10 -166441
-166441 -1 1 1;
#X obj 50 123 tgl 15 0 roue-deg-7 in-roue-deg-7 empty 17 7 0 10 -166441
-166441 -1 1 1;
#X obj 32 105 tgl 15 0 roue-deg-8 in-roue-deg-8 empty 17 7 0 10 -262144
-166441 -1 0 1;
#X obj 63 662 outlet;
#X obj 172 20 inlet;
#X text 73 39 0;
#X text 93 46 1;
#X text 111 64 2;
#X text 118 84 3;
#X text 111 104 4;
#X text 93 122 5;
#X text 73 129 6;
#X text 53 122 7;
#X text 35 104 8;
#X text 28 84 9;
#X text 32 64 10;
#X text 50 46 11;
#X obj 172 135 serialiseur;
#X obj 172 158 t b f;
#X obj 172 43 t l b, f 15;
#X obj 259 66 t b b;
#X msg 259 89 12;
#X obj 259 112 until;
#X obj 259 135 i;
#X obj 289 135 + 1;
#X msg 286 89 0;
#X obj 259 158 t b f;
#X msg 259 181 0;
#X msg 172 181 1;
#X obj 259 260 s, f 5;
#X msg 286 237 symbol in-roue-deg-\$1;
#X obj 263 343 roue-deg-abs 0;
#X obj 263 363 roue-deg-abs 1;
#X obj 263 383 roue-deg-abs 2;
#X obj 263 403 roue-deg-abs 3;
#X obj 263 423 roue-deg-abs 4;
#X obj 263 443 roue-deg-abs 5;
#X obj 263 463 roue-deg-abs 6;
#X obj 263 483 roue-deg-abs 7;
#X obj 263 503 roue-deg-abs 8;
#X obj 263 523 roue-deg-abs 9;
#X obj 263 543 roue-deg-abs 10;
#X obj 263 563 roue-deg-abs 11;
#X connect 0 0 1 0;
#X connect 0 1 5 0;
#X connect 1 0 2 0;
#X connect 2 0 3 0;
#X connect 3 0 4 0;
#X connect 3 0 13 0;
#X connect 4 0 3 1;
#X connect 5 0 3 1;
#X connect 6 0 12 0;
#X connect 7 0 11 0;
#X connect 8 0 27 0;
#X connect 9 0 10 0;
#X connect 10 0 9 1;
#X connect 10 0 8 1;
#X connect 11 0 10 0;
#X connect 11 1 10 1;
#X connect 12 0 8 0;
#X connect 12 1 0 0;
#X connect 14 0 9 0;
#X connect 28 0 43 0;
#X connect 41 0 42 0;
#X connect 42 0 52 0;
#X connect 42 1 54 0;
#X connect 43 0 41 0;
#X connect 43 1 44 0;
#X connect 44 0 45 0;
#X connect 44 1 49 0;
#X connect 45 0 46 0;
#X connect 46 0 47 0;
#X connect 47 0 48 0;
#X connect 47 0 50 0;
#X connect 48 0 47 1;
#X connect 49 0 47 1;
#X connect 50 0 51 0;
#X connect 50 1 54 0;
#X connect 51 0 53 0;
#X connect 52 0 53 0;
#X connect 54 0 53 1;
#X coords 0 -1 1 1 115 130 1 20 20;
#X restore 526 263 pd roue-degres;
#N canvas 5 96 472 704 gamme_aleatoire 0;
#X obj 196 150 inlet;
#X obj 142 193 spigot;
#X obj 142 267 random 4;
#X obj 142 216 random 8;
#X obj 142 239 sel 1;
#X obj 142 149 r metro;
#X obj 142 306 s in-gamme-select;
#X connect 0 0 1 1;
#X connect 1 0 3 0;
#X connect 2 0 6 0;
#X connect 3 0 4 0;
#X connect 4 0 2 0;
#X connect 5 0 1 0;
#X restore 378 35 pd gamme_aleatoire;
#X symbolatom 201 112 5 0 0 0 - in-tonalite-nom tonalite-nom;
#N canvas 423 245 959 545 trucs 0;
#X obj 78 217 metro;
#X obj 105 185 expr 60000/$f1;
#X obj 143 277 f;
#X obj 78 240 t b b;
#X obj 105 162 r tempo;
#X obj 78 300 s metro;
#X obj 143 300 s ms;
#X obj 78 113 r power;
#X obj 311 66 r tonalite;
#X obj 311 89 mod 12;
#X obj 311 112 sel 0 1 2 3 4 5 6 7 8 9 10 11;
#X msg 311 135 symbol do;
#X msg 321 155 symbol do#;
#X msg 331 175 symbol re;
#X msg 341 195 symbol re#;
#X msg 351 215 symbol mi;
#X msg 361 235 symbol fa;
#X msg 371 255 symbol fa#;
#X msg 381 275 symbol sol;
#X msg 391 295 symbol sol#;
#X msg 401 315 symbol la;
#X msg 411 335 symbol la#;
#X msg 421 355 symbol si;
#X obj 311 408 s in-tonalite-nom;
#X obj 74 38 declare -path abs;
#X obj 657 93 loadbang;
#X obj 631 141 bng 15 250 50 0 empty empty empty 17 7 0 10 -262144
-1 -1;
#X msg 657 116 \; in-tempo 120 \; in-tonalite 36 \; in-gamme-select
0 \;;
#X connect 0 0 3 0;
#X connect 1 0 0 1;
#X connect 1 0 2 0;
#X connect 2 0 6 0;
#X connect 3 0 5 0;
#X connect 3 1 2 0;
#X connect 4 0 1 0;
#X connect 7 0 0 0;
#X connect 8 0 9 0;
#X connect 9 0 10 0;
#X connect 10 0 11 0;
#X connect 10 1 12 0;
#X connect 10 2 13 0;
#X connect 10 3 14 0;
#X connect 10 4 15 0;
#X connect 10 5 16 0;
#X connect 10 6 17 0;
#X connect 10 7 18 0;
#X connect 10 8 19 0;
#X connect 10 9 20 0;
#X connect 10 10 21 0;
#X connect 10 11 22 0;
#X connect 11 0 23 0;
#X connect 12 0 23 0;
#X connect 13 0 23 0;
#X connect 14 0 23 0;
#X connect 15 0 23 0;
#X connect 16 0 23 0;
#X connect 17 0 23 0;
#X connect 18 0 23 0;
#X connect 19 0 23 0;
#X connect 20 0 23 0;
#X connect 21 0 23 0;
#X connect 22 0 23 0;
#X connect 25 0 27 0;
#X connect 26 0 27 0;
#X restore 35 139 pd trucs;
#X obj 35 467 tonal 1;
#X connect 2 0 28 0;
#X connect 12 0 27 0;
#X connect 13 0 27 0;
#X connect 14 0 27 0;
#X connect 15 0 12 0;
#X connect 15 1 13 0;
#X connect 15 2 14 0;
#X connect 15 3 16 0;
#X connect 16 0 27 0;
#X connect 17 0 27 0;
#X connect 18 0 27 0;
#X connect 19 0 15 0;
#X connect 24 0 23 2;
#X connect 25 0 24 0;
#X connect 26 0 27 0;
#X connect 27 0 20 0;
#X connect 31 0 23 0;
